solid OpenSCAD_Model
  facet normal -1 0 0
    outer loop
      vertex 0 185 0
      vertex 0 255 2
      vertex 0 255 0
    endloop
  endfacet
  facet normal -1 -0 0
    outer loop
      vertex 0 255 2
      vertex 0 185 0
      vertex 0 185 2
    endloop
  endfacet
  facet normal -0 0 1
    outer loop
      vertex 114.454 215.198 2
      vertex 180 185 2
      vertex 180 255 2
    endloop
  endfacet
  facet normal 0 0 1
    outer loop
      vertex 180 185 2
      vertex 114.454 215.198 2
      vertex 115 210 2
    endloop
  endfacet
  facet normal 0 0 1
    outer loop
      vertex 180 255 2
      vertex 112.839 220.168 2
      vertex 114.454 215.198 2
    endloop
  endfacet
  facet normal 0 0 1
    outer loop
      vertex 180 255 2
      vertex 110.225 224.695 2
      vertex 112.839 220.168 2
    endloop
  endfacet
  facet normal 0 0 1
    outer loop
      vertex 180 255 2
      vertex 106.728 228.579 2
      vertex 110.225 224.695 2
    endloop
  endfacet
  facet normal 0 0 1
    outer loop
      vertex 180 255 2
      vertex 102.5 231.651 2
      vertex 106.728 228.579 2
    endloop
  endfacet
  facet normal 0 0 1
    outer loop
      vertex 180 255 2
      vertex 97.7254 233.776 2
      vertex 102.5 231.651 2
    endloop
  endfacet
  facet normal 0 0 1
    outer loop
      vertex 180 255 2
      vertex 92.6132 234.863 2
      vertex 97.7254 233.776 2
    endloop
  endfacet
  facet normal 0 0 1
    outer loop
      vertex 180 255 2
      vertex 87.3868 234.863 2
      vertex 92.6132 234.863 2
    endloop
  endfacet
  facet normal -0 0 1
    outer loop
      vertex 0 255 2
      vertex 87.3868 234.863 2
      vertex 180 255 2
    endloop
  endfacet
  facet normal 0 0 1
    outer loop
      vertex 0 185 2
      vertex 65.5463 215.198 2
      vertex 0 255 2
    endloop
  endfacet
  facet normal 0 0 1
    outer loop
      vertex 67.1614 220.168 2
      vertex 0 255 2
      vertex 65.5463 215.198 2
    endloop
  endfacet
  facet normal 0 0 1
    outer loop
      vertex 69.7746 224.695 2
      vertex 0 255 2
      vertex 67.1614 220.168 2
    endloop
  endfacet
  facet normal 0 0 1
    outer loop
      vertex 73.2717 228.579 2
      vertex 0 255 2
      vertex 69.7746 224.695 2
    endloop
  endfacet
  facet normal 0 0 1
    outer loop
      vertex 77.5 231.651 2
      vertex 0 255 2
      vertex 73.2717 228.579 2
    endloop
  endfacet
  facet normal 0 0 1
    outer loop
      vertex 82.2746 233.776 2
      vertex 0 255 2
      vertex 77.5 231.651 2
    endloop
  endfacet
  facet normal 0 0 1
    outer loop
      vertex 87.3868 234.863 2
      vertex 0 255 2
      vertex 82.2746 233.776 2
    endloop
  endfacet
  facet normal -0 0 1
    outer loop
      vertex 114.454 204.802 2
      vertex 180 185 2
      vertex 115 210 2
    endloop
  endfacet
  facet normal -0 0 1
    outer loop
      vertex 112.839 199.832 2
      vertex 180 185 2
      vertex 114.454 204.802 2
    endloop
  endfacet
  facet normal -0 0 1
    outer loop
      vertex 110.225 195.305 2
      vertex 180 185 2
      vertex 112.839 199.832 2
    endloop
  endfacet
  facet normal -0 0 1
    outer loop
      vertex 106.728 191.421 2
      vertex 180 185 2
      vertex 110.225 195.305 2
    endloop
  endfacet
  facet normal -0 0 1
    outer loop
      vertex 102.5 188.349 2
      vertex 180 185 2
      vertex 106.728 191.421 2
    endloop
  endfacet
  facet normal -0 0 1
    outer loop
      vertex 97.7254 186.224 2
      vertex 180 185 2
      vertex 102.5 188.349 2
    endloop
  endfacet
  facet normal -0 0 1
    outer loop
      vertex 92.6132 185.137 2
      vertex 180 185 2
      vertex 97.7254 186.224 2
    endloop
  endfacet
  facet normal -0 0 1
    outer loop
      vertex 87.3868 185.137 2
      vertex 180 185 2
      vertex 92.6132 185.137 2
    endloop
  endfacet
  facet normal 0 0 1
    outer loop
      vertex 65.5463 215.198 2
      vertex 0 185 2
      vertex 65 210 2
    endloop
  endfacet
  facet normal 0 0 1
    outer loop
      vertex 65 210 2
      vertex 0 185 2
      vertex 65.5463 204.802 2
    endloop
  endfacet
  facet normal 0 0 1
    outer loop
      vertex 65.5463 204.802 2
      vertex 0 185 2
      vertex 67.1614 199.832 2
    endloop
  endfacet
  facet normal 0 0 1
    outer loop
      vertex 67.1614 199.832 2
      vertex 0 185 2
      vertex 69.7746 195.305 2
    endloop
  endfacet
  facet normal 0 0 1
    outer loop
      vertex 87.3868 185.137 2
      vertex 0 185 2
      vertex 180 185 2
    endloop
  endfacet
  facet normal 0 0 1
    outer loop
      vertex 82.2746 186.224 2
      vertex 0 185 2
      vertex 87.3868 185.137 2
    endloop
  endfacet
  facet normal 0 0 1
    outer loop
      vertex 77.5 188.349 2
      vertex 0 185 2
      vertex 82.2746 186.224 2
    endloop
  endfacet
  facet normal 0 0 1
    outer loop
      vertex 73.2717 191.421 2
      vertex 0 185 2
      vertex 77.5 188.349 2
    endloop
  endfacet
  facet normal 0 0 1
    outer loop
      vertex 69.7746 195.305 2
      vertex 0 185 2
      vertex 73.2717 191.421 2
    endloop
  endfacet
  facet normal 1 -0 0
    outer loop
      vertex 180 185 2
      vertex 180 255 0
      vertex 180 255 2
    endloop
  endfacet
  facet normal 1 0 0
    outer loop
      vertex 180 255 0
      vertex 180 185 2
      vertex 180 185 0
    endloop
  endfacet
  facet normal 0 1 -0
    outer loop
      vertex 180 255 0
      vertex 0 255 2
      vertex 180 255 2
    endloop
  endfacet
  facet normal 0 1 0
    outer loop
      vertex 0 255 2
      vertex 180 255 0
      vertex 0 255 0
    endloop
  endfacet
  facet normal 0 0 -1
    outer loop
      vertex 114.454 215.198 0
      vertex 180 185 0
      vertex 115 210 0
    endloop
  endfacet
  facet normal 0 0 -1
    outer loop
      vertex 180 185 0
      vertex 114.454 204.802 0
      vertex 115 210 0
    endloop
  endfacet
  facet normal 0 0 -1
    outer loop
      vertex 180 185 0
      vertex 112.839 199.832 0
      vertex 114.454 204.802 0
    endloop
  endfacet
  facet normal 0 0 -1
    outer loop
      vertex 180 185 0
      vertex 110.225 195.305 0
      vertex 112.839 199.832 0
    endloop
  endfacet
  facet normal 0 0 -1
    outer loop
      vertex 180 185 0
      vertex 106.728 191.421 0
      vertex 110.225 195.305 0
    endloop
  endfacet
  facet normal 0 0 -1
    outer loop
      vertex 180 185 0
      vertex 102.5 188.349 0
      vertex 106.728 191.421 0
    endloop
  endfacet
  facet normal 0 0 -1
    outer loop
      vertex 180 185 0
      vertex 97.7254 186.224 0
      vertex 102.5 188.349 0
    endloop
  endfacet
  facet normal 0 0 -1
    outer loop
      vertex 180 185 0
      vertex 92.6132 185.137 0
      vertex 97.7254 186.224 0
    endloop
  endfacet
  facet normal 0 0 -1
    outer loop
      vertex 180 185 0
      vertex 87.3868 185.137 0
      vertex 92.6132 185.137 0
    endloop
  endfacet
  facet normal -0 0 -1
    outer loop
      vertex 65.5463 204.802 0
      vertex 0 185 0
      vertex 65 210 0
    endloop
  endfacet
  facet normal -0 0 -1
    outer loop
      vertex 67.1614 199.832 0
      vertex 0 185 0
      vertex 65.5463 204.802 0
    endloop
  endfacet
  facet normal -0 0 -1
    outer loop
      vertex 69.7746 195.305 0
      vertex 0 185 0
      vertex 67.1614 199.832 0
    endloop
  endfacet
  facet normal -0 0 -1
    outer loop
      vertex 73.2717 191.421 0
      vertex 0 185 0
      vertex 69.7746 195.305 0
    endloop
  endfacet
  facet normal -0 0 -1
    outer loop
      vertex 77.5 188.349 0
      vertex 0 185 0
      vertex 73.2717 191.421 0
    endloop
  endfacet
  facet normal -0 0 -1
    outer loop
      vertex 82.2746 186.224 0
      vertex 0 185 0
      vertex 77.5 188.349 0
    endloop
  endfacet
  facet normal -0 0 -1
    outer loop
      vertex 87.3868 185.137 0
      vertex 0 185 0
      vertex 82.2746 186.224 0
    endloop
  endfacet
  facet normal 0 0 -1
    outer loop
      vertex 0 185 0
      vertex 87.3868 185.137 0
      vertex 180 185 0
    endloop
  endfacet
  facet normal 0 0 -1
    outer loop
      vertex 180 185 0
      vertex 114.454 215.198 0
      vertex 180 255 0
    endloop
  endfacet
  facet normal 0 0 -1
    outer loop
      vertex 112.839 220.168 0
      vertex 180 255 0
      vertex 114.454 215.198 0
    endloop
  endfacet
  facet normal 0 0 -1
    outer loop
      vertex 110.225 224.695 0
      vertex 180 255 0
      vertex 112.839 220.168 0
    endloop
  endfacet
  facet normal 0 0 -1
    outer loop
      vertex 106.728 228.579 0
      vertex 180 255 0
      vertex 110.225 224.695 0
    endloop
  endfacet
  facet normal 0 0 -1
    outer loop
      vertex 102.5 231.651 0
      vertex 180 255 0
      vertex 106.728 228.579 0
    endloop
  endfacet
  facet normal 0 0 -1
    outer loop
      vertex 97.7254 233.776 0
      vertex 180 255 0
      vertex 102.5 231.651 0
    endloop
  endfacet
  facet normal 0 0 -1
    outer loop
      vertex 92.6132 234.863 0
      vertex 180 255 0
      vertex 97.7254 233.776 0
    endloop
  endfacet
  facet normal 0 0 -1
    outer loop
      vertex 87.3868 234.863 0
      vertex 180 255 0
      vertex 92.6132 234.863 0
    endloop
  endfacet
  facet normal 0 0 -1
    outer loop
      vertex 0 255 0
      vertex 87.3868 234.863 0
      vertex 82.2746 233.776 0
    endloop
  endfacet
  facet normal 0 0 -1
    outer loop
      vertex 0 185 0
      vertex 65.5463 215.198 0
      vertex 65 210 0
    endloop
  endfacet
  facet normal 0 0 -1
    outer loop
      vertex 0 255 0
      vertex 65.5463 215.198 0
      vertex 0 185 0
    endloop
  endfacet
  facet normal 0 0 -1
    outer loop
      vertex 65.5463 215.198 0
      vertex 0 255 0
      vertex 67.1614 220.168 0
    endloop
  endfacet
  facet normal 0 0 -1
    outer loop
      vertex 67.1614 220.168 0
      vertex 0 255 0
      vertex 69.7746 224.695 0
    endloop
  endfacet
  facet normal 0 0 -1
    outer loop
      vertex 69.7746 224.695 0
      vertex 0 255 0
      vertex 73.2717 228.579 0
    endloop
  endfacet
  facet normal 0 0 -1
    outer loop
      vertex 87.3868 234.863 0
      vertex 0 255 0
      vertex 180 255 0
    endloop
  endfacet
  facet normal 0 0 -1
    outer loop
      vertex 77.5 231.651 0
      vertex 0 255 0
      vertex 82.2746 233.776 0
    endloop
  endfacet
  facet normal 0 0 -1
    outer loop
      vertex 73.2717 228.579 0
      vertex 0 255 0
      vertex 77.5 231.651 0
    endloop
  endfacet
  facet normal 0 -1 0
    outer loop
      vertex 0 185 0
      vertex 180 185 2
      vertex 0 185 2
    endloop
  endfacet
  facet normal 0 -1 -0
    outer loop
      vertex 180 185 2
      vertex 0 185 0
      vertex 180 185 0
    endloop
  endfacet
  facet normal -0.865998 -0.500048 0
    outer loop
      vertex 112.839 220.168 0
      vertex 110.225 224.695 2
      vertex 110.225 224.695 0
    endloop
  endfacet
  facet normal -0.865998 -0.500048 0
    outer loop
      vertex 110.225 224.695 2
      vertex 112.839 220.168 0
      vertex 112.839 220.168 2
    endloop
  endfacet
  facet normal -0.994528 -0.104466 0
    outer loop
      vertex 115 210 0
      vertex 114.454 215.198 2
      vertex 114.454 215.198 0
    endloop
  endfacet
  facet normal -0.994528 -0.104466 0
    outer loop
      vertex 114.454 215.198 2
      vertex 115 210 0
      vertex 115 210 2
    endloop
  endfacet
  facet normal 0.951043 0.30906 0
    outer loop
      vertex 67.1614 199.832 2
      vertex 65.5463 204.802 0
      vertex 65.5463 204.802 2
    endloop
  endfacet
  facet normal 0.951043 0.30906 0
    outer loop
      vertex 65.5463 204.802 0
      vertex 67.1614 199.832 2
      vertex 67.1614 199.832 0
    endloop
  endfacet
  facet normal -0.743161 -0.669113 0
    outer loop
      vertex 110.225 224.695 0
      vertex 106.728 228.579 2
      vertex 106.728 228.579 0
    endloop
  endfacet
  facet normal -0.743161 -0.669113 0
    outer loop
      vertex 106.728 228.579 2
      vertex 110.225 224.695 0
      vertex 110.225 224.695 2
    endloop
  endfacet
  facet normal -0.207979 -0.978133 0
    outer loop
      vertex 92.6132 234.863 0
      vertex 97.7254 233.776 2
      vertex 92.6132 234.863 2
    endloop
  endfacet
  facet normal -0.207979 -0.978133 -0
    outer loop
      vertex 97.7254 233.776 2
      vertex 92.6132 234.863 0
      vertex 97.7254 233.776 0
    endloop
  endfacet
  facet normal 0.58778 -0.809021 0
    outer loop
      vertex 73.2717 228.579 0
      vertex 77.5 231.651 2
      vertex 73.2717 228.579 2
    endloop
  endfacet
  facet normal 0.58778 -0.809021 0
    outer loop
      vertex 77.5 231.651 2
      vertex 73.2717 228.579 0
      vertex 77.5 231.651 0
    endloop
  endfacet
  facet normal -0.587808 -0.809001 0
    outer loop
      vertex 102.5 231.651 0
      vertex 106.728 228.579 2
      vertex 102.5 231.651 2
    endloop
  endfacet
  facet normal -0.587808 -0.809001 -0
    outer loop
      vertex 106.728 228.579 2
      vertex 102.5 231.651 0
      vertex 106.728 228.579 0
    endloop
  endfacet
  facet normal 0.207979 -0.978133 0
    outer loop
      vertex 82.2746 233.776 0
      vertex 87.3868 234.863 2
      vertex 82.2746 233.776 2
    endloop
  endfacet
  facet normal 0.207979 -0.978133 0
    outer loop
      vertex 87.3868 234.863 2
      vertex 82.2746 233.776 0
      vertex 87.3868 234.863 0
    endloop
  endfacet
  facet normal -0.406611 -0.913602 0
    outer loop
      vertex 97.7254 233.776 0
      vertex 102.5 231.651 2
      vertex 97.7254 233.776 2
    endloop
  endfacet
  facet normal -0.406611 -0.913602 -0
    outer loop
      vertex 102.5 231.651 2
      vertex 97.7254 233.776 0
      vertex 102.5 231.651 0
    endloop
  endfacet
  facet normal 0.994523 0.104522 0
    outer loop
      vertex 65.5463 204.802 2
      vertex 65 210 0
      vertex 65 210 2
    endloop
  endfacet
  facet normal 0.994523 0.104522 0
    outer loop
      vertex 65 210 0
      vertex 65.5463 204.802 2
      vertex 65.5463 204.802 0
    endloop
  endfacet
  facet normal 0.951043 -0.30906 0
    outer loop
      vertex 65.5463 215.198 2
      vertex 67.1614 220.168 0
      vertex 67.1614 220.168 2
    endloop
  endfacet
  facet normal 0.951043 -0.30906 0
    outer loop
      vertex 67.1614 220.168 0
      vertex 65.5463 215.198 2
      vertex 65.5463 215.198 0
    endloop
  endfacet
  facet normal 0.743151 -0.669123 0
    outer loop
      vertex 69.7746 224.695 2
      vertex 73.2717 228.579 0
      vertex 73.2717 228.579 2
    endloop
  endfacet
  facet normal 0.743151 -0.669123 0
    outer loop
      vertex 73.2717 228.579 0
      vertex 69.7746 224.695 2
      vertex 69.7746 224.695 0
    endloop
  endfacet
  facet normal 0.406611 -0.913602 0
    outer loop
      vertex 77.5 231.651 0
      vertex 82.2746 233.776 2
      vertex 77.5 231.651 2
    endloop
  endfacet
  facet normal 0.406611 -0.913602 0
    outer loop
      vertex 82.2746 233.776 2
      vertex 77.5 231.651 0
      vertex 82.2746 233.776 0
    endloop
  endfacet
  facet normal 0.866064 -0.499933 0
    outer loop
      vertex 67.1614 220.168 2
      vertex 69.7746 224.695 0
      vertex 69.7746 224.695 2
    endloop
  endfacet
  facet normal 0.866064 -0.499933 0
    outer loop
      vertex 69.7746 224.695 0
      vertex 67.1614 220.168 2
      vertex 67.1614 220.168 0
    endloop
  endfacet
  facet normal -0.951048 0.309043 0
    outer loop
      vertex 112.839 199.832 0
      vertex 114.454 204.802 2
      vertex 114.454 204.802 0
    endloop
  endfacet
  facet normal -0.951048 0.309043 0
    outer loop
      vertex 114.454 204.802 2
      vertex 112.839 199.832 0
      vertex 112.839 199.832 2
    endloop
  endfacet
  facet normal -0.743161 0.669113 0
    outer loop
      vertex 106.728 191.421 0
      vertex 110.225 195.305 2
      vertex 110.225 195.305 0
    endloop
  endfacet
  facet normal -0.743161 0.669113 0
    outer loop
      vertex 110.225 195.305 2
      vertex 106.728 191.421 0
      vertex 106.728 191.421 2
    endloop
  endfacet
  facet normal -0.994528 0.104466 0
    outer loop
      vertex 114.454 204.802 0
      vertex 115 210 2
      vertex 115 210 0
    endloop
  endfacet
  facet normal -0.994528 0.104466 0
    outer loop
      vertex 115 210 2
      vertex 114.454 204.802 0
      vertex 114.454 204.802 2
    endloop
  endfacet
  facet normal -0.951048 -0.309043 0
    outer loop
      vertex 114.454 215.198 0
      vertex 112.839 220.168 2
      vertex 112.839 220.168 0
    endloop
  endfacet
  facet normal -0.951048 -0.309043 0
    outer loop
      vertex 112.839 220.168 2
      vertex 114.454 215.198 0
      vertex 114.454 215.198 2
    endloop
  endfacet
  facet normal 0 -1 0
    outer loop
      vertex 87.3868 234.863 0
      vertex 92.6132 234.863 2
      vertex 87.3868 234.863 2
    endloop
  endfacet
  facet normal 0 -1 -0
    outer loop
      vertex 92.6132 234.863 2
      vertex 87.3868 234.863 0
      vertex 92.6132 234.863 0
    endloop
  endfacet
  facet normal 0.994523 -0.104522 0
    outer loop
      vertex 65 210 2
      vertex 65.5463 215.198 0
      vertex 65.5463 215.198 2
    endloop
  endfacet
  facet normal 0.994523 -0.104522 0
    outer loop
      vertex 65.5463 215.198 0
      vertex 65 210 2
      vertex 65 210 0
    endloop
  endfacet
  facet normal -0.207979 0.978133 0
    outer loop
      vertex 97.7254 186.224 0
      vertex 92.6132 185.137 2
      vertex 97.7254 186.224 2
    endloop
  endfacet
  facet normal -0.207979 0.978133 0
    outer loop
      vertex 92.6132 185.137 2
      vertex 97.7254 186.224 0
      vertex 92.6132 185.137 0
    endloop
  endfacet
  facet normal -0.406611 0.913602 0
    outer loop
      vertex 102.5 188.349 0
      vertex 97.7254 186.224 2
      vertex 102.5 188.349 2
    endloop
  endfacet
  facet normal -0.406611 0.913602 0
    outer loop
      vertex 97.7254 186.224 2
      vertex 102.5 188.349 0
      vertex 97.7254 186.224 0
    endloop
  endfacet
  facet normal -0.587808 0.809001 0
    outer loop
      vertex 106.728 191.421 0
      vertex 102.5 188.349 2
      vertex 106.728 191.421 2
    endloop
  endfacet
  facet normal -0.587808 0.809001 0
    outer loop
      vertex 102.5 188.349 2
      vertex 106.728 191.421 0
      vertex 102.5 188.349 0
    endloop
  endfacet
  facet normal 0.406611 0.913602 -0
    outer loop
      vertex 82.2746 186.224 0
      vertex 77.5 188.349 2
      vertex 82.2746 186.224 2
    endloop
  endfacet
  facet normal 0.406611 0.913602 0
    outer loop
      vertex 77.5 188.349 2
      vertex 82.2746 186.224 0
      vertex 77.5 188.349 0
    endloop
  endfacet
  facet normal 0.207979 0.978133 -0
    outer loop
      vertex 87.3868 185.137 0
      vertex 82.2746 186.224 2
      vertex 87.3868 185.137 2
    endloop
  endfacet
  facet normal 0.207979 0.978133 0
    outer loop
      vertex 82.2746 186.224 2
      vertex 87.3868 185.137 0
      vertex 82.2746 186.224 0
    endloop
  endfacet
  facet normal 0 1 -0
    outer loop
      vertex 92.6132 185.137 0
      vertex 87.3868 185.137 2
      vertex 92.6132 185.137 2
    endloop
  endfacet
  facet normal 0 1 0
    outer loop
      vertex 87.3868 185.137 2
      vertex 92.6132 185.137 0
      vertex 87.3868 185.137 0
    endloop
  endfacet
  facet normal 0.743151 0.669123 0
    outer loop
      vertex 73.2717 191.421 2
      vertex 69.7746 195.305 0
      vertex 69.7746 195.305 2
    endloop
  endfacet
  facet normal 0.743151 0.669123 0
    outer loop
      vertex 69.7746 195.305 0
      vertex 73.2717 191.421 2
      vertex 73.2717 191.421 0
    endloop
  endfacet
  facet normal 0.866064 0.499933 0
    outer loop
      vertex 69.7746 195.305 2
      vertex 67.1614 199.832 0
      vertex 67.1614 199.832 2
    endloop
  endfacet
  facet normal 0.866064 0.499933 0
    outer loop
      vertex 67.1614 199.832 0
      vertex 69.7746 195.305 2
      vertex 69.7746 195.305 0
    endloop
  endfacet
  facet normal 0.58778 0.809021 -0
    outer loop
      vertex 77.5 188.349 0
      vertex 73.2717 191.421 2
      vertex 77.5 188.349 2
    endloop
  endfacet
  facet normal 0.58778 0.809021 0
    outer loop
      vertex 73.2717 191.421 2
      vertex 77.5 188.349 0
      vertex 73.2717 191.421 0
    endloop
  endfacet
  facet normal -0.865998 0.500048 0
    outer loop
      vertex 110.225 195.305 0
      vertex 112.839 199.832 2
      vertex 112.839 199.832 0
    endloop
  endfacet
  facet normal -0.865998 0.500048 0
    outer loop
      vertex 112.839 199.832 2
      vertex 110.225 195.305 0
      vertex 110.225 195.305 2
    endloop
  endfacet
  facet normal -1 0 0
    outer loop
      vertex 0 260 0
      vertex 0 330 2
      vertex 0 330 0
    endloop
  endfacet
  facet normal -1 -0 0
    outer loop
      vertex 0 330 2
      vertex 0 260 0
      vertex 0 260 2
    endloop
  endfacet
  facet normal -0 0 1
    outer loop
      vertex 164.454 290.198 2
      vertex 180 260 2
      vertex 180 330 2
    endloop
  endfacet
  facet normal 0 0 1
    outer loop
      vertex 180 260 2
      vertex 164.454 290.198 2
      vertex 165 285 2
    endloop
  endfacet
  facet normal 0 0 1
    outer loop
      vertex 180 330 2
      vertex 162.839 295.168 2
      vertex 164.454 290.198 2
    endloop
  endfacet
  facet normal 0 0 1
    outer loop
      vertex 180 330 2
      vertex 160.225 299.695 2
      vertex 162.839 295.168 2
    endloop
  endfacet
  facet normal 0 0 1
    outer loop
      vertex 180 330 2
      vertex 156.728 303.579 2
      vertex 160.225 299.695 2
    endloop
  endfacet
  facet normal 0 0 1
    outer loop
      vertex 180 330 2
      vertex 152.5 306.651 2
      vertex 156.728 303.579 2
    endloop
  endfacet
  facet normal 0 0 1
    outer loop
      vertex 180 330 2
      vertex 147.725 308.776 2
      vertex 152.5 306.651 2
    endloop
  endfacet
  facet normal 0 0 1
    outer loop
      vertex 180 330 2
      vertex 142.613 309.863 2
      vertex 147.725 308.776 2
    endloop
  endfacet
  facet normal 0 0 1
    outer loop
      vertex 180 330 2
      vertex 137.387 309.863 2
      vertex 142.613 309.863 2
    endloop
  endfacet
  facet normal 0 0 1
    outer loop
      vertex 180 330 2
      vertex 132.275 308.776 2
      vertex 137.387 309.863 2
    endloop
  endfacet
  facet normal 0 0 1
    outer loop
      vertex 115.546 290.198 2
      vertex 65 285 2
      vertex 115 285 2
    endloop
  endfacet
  facet normal 0 0 1
    outer loop
      vertex 64.4537 290.198 2
      vertex 115.546 290.198 2
      vertex 117.161 295.168 2
    endloop
  endfacet
  facet normal 0 0 1
    outer loop
      vertex 62.8386 295.168 2
      vertex 117.161 295.168 2
      vertex 119.775 299.695 2
    endloop
  endfacet
  facet normal 0 0 1
    outer loop
      vertex 60.2254 299.695 2
      vertex 119.775 299.695 2
      vertex 123.272 303.579 2
    endloop
  endfacet
  facet normal 0 0 1
    outer loop
      vertex 56.7283 303.579 2
      vertex 123.272 303.579 2
      vertex 127.5 306.651 2
    endloop
  endfacet
  facet normal 0 0 1
    outer loop
      vertex 52.5 306.651 2
      vertex 127.5 306.651 2
      vertex 132.275 308.776 2
    endloop
  endfacet
  facet normal 0 0 1
    outer loop
      vertex 47.7254 308.776 2
      vertex 132.275 308.776 2
      vertex 180 330 2
    endloop
  endfacet
  facet normal 0 0 1
    outer loop
      vertex 115.546 290.198 2
      vertex 64.4537 290.198 2
      vertex 65 285 2
    endloop
  endfacet
  facet normal 0 0 1
    outer loop
      vertex 117.161 295.168 2
      vertex 62.8386 295.168 2
      vertex 64.4537 290.198 2
    endloop
  endfacet
  facet normal 0 0 1
    outer loop
      vertex 119.775 299.695 2
      vertex 60.2254 299.695 2
      vertex 62.8386 295.168 2
    endloop
  endfacet
  facet normal 0 0 1
    outer loop
      vertex 123.272 303.579 2
      vertex 56.7283 303.579 2
      vertex 60.2254 299.695 2
    endloop
  endfacet
  facet normal 0 0 1
    outer loop
      vertex 127.5 306.651 2
      vertex 52.5 306.651 2
      vertex 56.7283 303.579 2
    endloop
  endfacet
  facet normal 0 0 1
    outer loop
      vertex 132.275 308.776 2
      vertex 47.7254 308.776 2
      vertex 52.5 306.651 2
    endloop
  endfacet
  facet normal -0 0 1
    outer loop
      vertex 0 330 2
      vertex 47.7254 308.776 2
      vertex 180 330 2
    endloop
  endfacet
  facet normal 0 0 1
    outer loop
      vertex 47.7254 308.776 2
      vertex 0 330 2
      vertex 42.6132 309.863 2
    endloop
  endfacet
  facet normal 0 0 1
    outer loop
      vertex 0 260 2
      vertex 15.5463 290.198 2
      vertex 0 330 2
    endloop
  endfacet
  facet normal 0 0 1
    outer loop
      vertex 17.1614 295.168 2
      vertex 0 330 2
      vertex 15.5463 290.198 2
    endloop
  endfacet
  facet normal 0 0 1
    outer loop
      vertex 19.7746 299.695 2
      vertex 0 330 2
      vertex 17.1614 295.168 2
    endloop
  endfacet
  facet normal 0 0 1
    outer loop
      vertex 23.2717 303.579 2
      vertex 0 330 2
      vertex 19.7746 299.695 2
    endloop
  endfacet
  facet normal 0 0 1
    outer loop
      vertex 27.5 306.651 2
      vertex 0 330 2
      vertex 23.2717 303.579 2
    endloop
  endfacet
  facet normal 0 0 1
    outer loop
      vertex 32.2746 308.776 2
      vertex 0 330 2
      vertex 27.5 306.651 2
    endloop
  endfacet
  facet normal 0 0 1
    outer loop
      vertex 37.3868 309.863 2
      vertex 0 330 2
      vertex 32.2746 308.776 2
    endloop
  endfacet
  facet normal 0 0 1
    outer loop
      vertex 42.6132 309.863 2
      vertex 0 330 2
      vertex 37.3868 309.863 2
    endloop
  endfacet
  facet normal -0 0 1
    outer loop
      vertex 164.454 279.802 2
      vertex 180 260 2
      vertex 165 285 2
    endloop
  endfacet
  facet normal -0 0 1
    outer loop
      vertex 162.839 274.832 2
      vertex 180 260 2
      vertex 164.454 279.802 2
    endloop
  endfacet
  facet normal -0 0 1
    outer loop
      vertex 160.225 270.305 2
      vertex 180 260 2
      vertex 162.839 274.832 2
    endloop
  endfacet
  facet normal -0 0 1
    outer loop
      vertex 156.728 266.421 2
      vertex 180 260 2
      vertex 160.225 270.305 2
    endloop
  endfacet
  facet normal -0 0 1
    outer loop
      vertex 152.5 263.349 2
      vertex 180 260 2
      vertex 156.728 266.421 2
    endloop
  endfacet
  facet normal -0 0 1
    outer loop
      vertex 147.725 261.224 2
      vertex 180 260 2
      vertex 152.5 263.349 2
    endloop
  endfacet
  facet normal -0 0 1
    outer loop
      vertex 142.613 260.137 2
      vertex 180 260 2
      vertex 147.725 261.224 2
    endloop
  endfacet
  facet normal -0 0 1
    outer loop
      vertex 137.387 260.137 2
      vertex 180 260 2
      vertex 142.613 260.137 2
    endloop
  endfacet
  facet normal -0 0 1
    outer loop
      vertex 65 285 2
      vertex 115.546 279.802 2
      vertex 115 285 2
    endloop
  endfacet
  facet normal 0 0 1
    outer loop
      vertex 64.4537 279.802 2
      vertex 115.546 279.802 2
      vertex 65 285 2
    endloop
  endfacet
  facet normal 0 0 1
    outer loop
      vertex 115.546 279.802 2
      vertex 64.4537 279.802 2
      vertex 117.161 274.832 2
    endloop
  endfacet
  facet normal 0 0 1
    outer loop
      vertex 62.8386 274.832 2
      vertex 117.161 274.832 2
      vertex 64.4537 279.802 2
    endloop
  endfacet
  facet normal 0 0 1
    outer loop
      vertex 117.161 274.832 2
      vertex 62.8386 274.832 2
      vertex 119.775 270.305 2
    endloop
  endfacet
  facet normal 0 0 1
    outer loop
      vertex 60.2254 270.305 2
      vertex 119.775 270.305 2
      vertex 62.8386 274.832 2
    endloop
  endfacet
  facet normal 0 0 1
    outer loop
      vertex 119.775 270.305 2
      vertex 60.2254 270.305 2
      vertex 123.272 266.421 2
    endloop
  endfacet
  facet normal 0 0 1
    outer loop
      vertex 56.7283 266.421 2
      vertex 123.272 266.421 2
      vertex 60.2254 270.305 2
    endloop
  endfacet
  facet normal 0 0 1
    outer loop
      vertex 123.272 266.421 2
      vertex 56.7283 266.421 2
      vertex 127.5 263.349 2
    endloop
  endfacet
  facet normal 0 0 1
    outer loop
      vertex 52.5 263.349 2
      vertex 127.5 263.349 2
      vertex 56.7283 266.421 2
    endloop
  endfacet
  facet normal 0 0 1
    outer loop
      vertex 127.5 263.349 2
      vertex 52.5 263.349 2
      vertex 132.275 261.224 2
    endloop
  endfacet
  facet normal 0 0 1
    outer loop
      vertex 47.7254 261.224 2
      vertex 132.275 261.224 2
      vertex 52.5 263.349 2
    endloop
  endfacet
  facet normal 0 0 1
    outer loop
      vertex 132.275 261.224 2
      vertex 47.7254 261.224 2
      vertex 137.387 260.137 2
    endloop
  endfacet
  facet normal 0 0 1
    outer loop
      vertex 42.6132 260.137 2
      vertex 137.387 260.137 2
      vertex 47.7254 261.224 2
    endloop
  endfacet
  facet normal -0 0 1
    outer loop
      vertex 42.6132 260.137 2
      vertex 180 260 2
      vertex 137.387 260.137 2
    endloop
  endfacet
  facet normal -0 0 1
    outer loop
      vertex 37.3868 260.137 2
      vertex 180 260 2
      vertex 42.6132 260.137 2
    endloop
  endfacet
  facet normal 0 0 1
    outer loop
      vertex 15.5463 290.198 2
      vertex 0 260 2
      vertex 15 285 2
    endloop
  endfacet
  facet normal 0 0 1
    outer loop
      vertex 37.3868 260.137 2
      vertex 0 260 2
      vertex 180 260 2
    endloop
  endfacet
  facet normal 0 0 1
    outer loop
      vertex 32.2746 261.224 2
      vertex 0 260 2
      vertex 37.3868 260.137 2
    endloop
  endfacet
  facet normal 0 0 1
    outer loop
      vertex 27.5 263.349 2
      vertex 0 260 2
      vertex 32.2746 261.224 2
    endloop
  endfacet
  facet normal 0 0 1
    outer loop
      vertex 23.2717 266.421 2
      vertex 0 260 2
      vertex 27.5 263.349 2
    endloop
  endfacet
  facet normal 0 0 1
    outer loop
      vertex 19.7746 270.305 2
      vertex 0 260 2
      vertex 23.2717 266.421 2
    endloop
  endfacet
  facet normal 0 0 1
    outer loop
      vertex 17.1614 274.832 2
      vertex 0 260 2
      vertex 19.7746 270.305 2
    endloop
  endfacet
  facet normal 0 0 1
    outer loop
      vertex 15.5463 279.802 2
      vertex 0 260 2
      vertex 17.1614 274.832 2
    endloop
  endfacet
  facet normal 0 0 1
    outer loop
      vertex 15 285 2
      vertex 0 260 2
      vertex 15.5463 279.802 2
    endloop
  endfacet
  facet normal 1 -0 0
    outer loop
      vertex 180 260 2
      vertex 180 330 0
      vertex 180 330 2
    endloop
  endfacet
  facet normal 1 0 0
    outer loop
      vertex 180 330 0
      vertex 180 260 2
      vertex 180 260 0
    endloop
  endfacet
  facet normal 0 1 -0
    outer loop
      vertex 180 330 0
      vertex 0 330 2
      vertex 180 330 2
    endloop
  endfacet
  facet normal 0 1 0
    outer loop
      vertex 0 330 2
      vertex 180 330 0
      vertex 0 330 0
    endloop
  endfacet
  facet normal 0 0 -1
    outer loop
      vertex 164.454 290.198 0
      vertex 180 260 0
      vertex 165 285 0
    endloop
  endfacet
  facet normal 0 0 -1
    outer loop
      vertex 180 260 0
      vertex 164.454 279.802 0
      vertex 165 285 0
    endloop
  endfacet
  facet normal 0 0 -1
    outer loop
      vertex 180 260 0
      vertex 162.839 274.832 0
      vertex 164.454 279.802 0
    endloop
  endfacet
  facet normal 0 0 -1
    outer loop
      vertex 180 260 0
      vertex 160.225 270.305 0
      vertex 162.839 274.832 0
    endloop
  endfacet
  facet normal 0 0 -1
    outer loop
      vertex 180 260 0
      vertex 156.728 266.421 0
      vertex 160.225 270.305 0
    endloop
  endfacet
  facet normal 0 0 -1
    outer loop
      vertex 180 260 0
      vertex 152.5 263.349 0
      vertex 156.728 266.421 0
    endloop
  endfacet
  facet normal 0 0 -1
    outer loop
      vertex 180 260 0
      vertex 147.725 261.224 0
      vertex 152.5 263.349 0
    endloop
  endfacet
  facet normal 0 0 -1
    outer loop
      vertex 180 260 0
      vertex 142.613 260.137 0
      vertex 147.725 261.224 0
    endloop
  endfacet
  facet normal 0 0 -1
    outer loop
      vertex 180 260 0
      vertex 137.387 260.137 0
      vertex 142.613 260.137 0
    endloop
  endfacet
  facet normal 0 0 -1
    outer loop
      vertex 115.546 279.802 0
      vertex 65 285 0
      vertex 115 285 0
    endloop
  endfacet
  facet normal 0 0 -1
    outer loop
      vertex 64.4537 279.802 0
      vertex 115.546 279.802 0
      vertex 117.161 274.832 0
    endloop
  endfacet
  facet normal 0 0 -1
    outer loop
      vertex 62.8386 274.832 0
      vertex 117.161 274.832 0
      vertex 119.775 270.305 0
    endloop
  endfacet
  facet normal 0 0 -1
    outer loop
      vertex 60.2254 270.305 0
      vertex 119.775 270.305 0
      vertex 123.272 266.421 0
    endloop
  endfacet
  facet normal 0 0 -1
    outer loop
      vertex 56.7283 266.421 0
      vertex 123.272 266.421 0
      vertex 127.5 263.349 0
    endloop
  endfacet
  facet normal 0 0 -1
    outer loop
      vertex 52.5 263.349 0
      vertex 127.5 263.349 0
      vertex 132.275 261.224 0
    endloop
  endfacet
  facet normal 0 0 -1
    outer loop
      vertex 115.546 279.802 0
      vertex 64.4537 279.802 0
      vertex 65 285 0
    endloop
  endfacet
  facet normal 0 0 -1
    outer loop
      vertex 117.161 274.832 0
      vertex 62.8386 274.832 0
      vertex 64.4537 279.802 0
    endloop
  endfacet
  facet normal 0 0 -1
    outer loop
      vertex 47.7254 261.224 0
      vertex 132.275 261.224 0
      vertex 137.387 260.137 0
    endloop
  endfacet
  facet normal 0 0 -1
    outer loop
      vertex 119.775 270.305 0
      vertex 60.2254 270.305 0
      vertex 62.8386 274.832 0
    endloop
  endfacet
  facet normal 0 0 -1
    outer loop
      vertex 123.272 266.421 0
      vertex 56.7283 266.421 0
      vertex 60.2254 270.305 0
    endloop
  endfacet
  facet normal 0 0 -1
    outer loop
      vertex 127.5 263.349 0
      vertex 52.5 263.349 0
      vertex 56.7283 266.421 0
    endloop
  endfacet
  facet normal 0 0 -1
    outer loop
      vertex 132.275 261.224 0
      vertex 47.7254 261.224 0
      vertex 52.5 263.349 0
    endloop
  endfacet
  facet normal 0 0 -1
    outer loop
      vertex 137.387 260.137 0
      vertex 42.6132 260.137 0
      vertex 47.7254 261.224 0
    endloop
  endfacet
  facet normal 0 0 -1
    outer loop
      vertex 180 260 0
      vertex 42.6132 260.137 0
      vertex 137.387 260.137 0
    endloop
  endfacet
  facet normal 0 0 -1
    outer loop
      vertex 180 260 0
      vertex 37.3868 260.137 0
      vertex 42.6132 260.137 0
    endloop
  endfacet
  facet normal -0 0 -1
    outer loop
      vertex 15.5463 279.802 0
      vertex 0 260 0
      vertex 15 285 0
    endloop
  endfacet
  facet normal -0 0 -1
    outer loop
      vertex 17.1614 274.832 0
      vertex 0 260 0
      vertex 15.5463 279.802 0
    endloop
  endfacet
  facet normal -0 0 -1
    outer loop
      vertex 19.7746 270.305 0
      vertex 0 260 0
      vertex 17.1614 274.832 0
    endloop
  endfacet
  facet normal -0 0 -1
    outer loop
      vertex 23.2717 266.421 0
      vertex 0 260 0
      vertex 19.7746 270.305 0
    endloop
  endfacet
  facet normal -0 0 -1
    outer loop
      vertex 27.5 263.349 0
      vertex 0 260 0
      vertex 23.2717 266.421 0
    endloop
  endfacet
  facet normal -0 0 -1
    outer loop
      vertex 32.2746 261.224 0
      vertex 0 260 0
      vertex 27.5 263.349 0
    endloop
  endfacet
  facet normal -0 0 -1
    outer loop
      vertex 37.3868 260.137 0
      vertex 0 260 0
      vertex 32.2746 261.224 0
    endloop
  endfacet
  facet normal 0 0 -1
    outer loop
      vertex 0 260 0
      vertex 37.3868 260.137 0
      vertex 180 260 0
    endloop
  endfacet
  facet normal 0 0 -1
    outer loop
      vertex 180 260 0
      vertex 164.454 290.198 0
      vertex 180 330 0
    endloop
  endfacet
  facet normal 0 0 -1
    outer loop
      vertex 162.839 295.168 0
      vertex 180 330 0
      vertex 164.454 290.198 0
    endloop
  endfacet
  facet normal 0 0 -1
    outer loop
      vertex 160.225 299.695 0
      vertex 180 330 0
      vertex 162.839 295.168 0
    endloop
  endfacet
  facet normal 0 0 -1
    outer loop
      vertex 156.728 303.579 0
      vertex 180 330 0
      vertex 160.225 299.695 0
    endloop
  endfacet
  facet normal 0 0 -1
    outer loop
      vertex 152.5 306.651 0
      vertex 180 330 0
      vertex 156.728 303.579 0
    endloop
  endfacet
  facet normal 0 0 -1
    outer loop
      vertex 147.725 308.776 0
      vertex 180 330 0
      vertex 152.5 306.651 0
    endloop
  endfacet
  facet normal 0 0 -1
    outer loop
      vertex 142.613 309.863 0
      vertex 180 330 0
      vertex 147.725 308.776 0
    endloop
  endfacet
  facet normal 0 0 -1
    outer loop
      vertex 137.387 309.863 0
      vertex 180 330 0
      vertex 142.613 309.863 0
    endloop
  endfacet
  facet normal 0 0 -1
    outer loop
      vertex 132.275 308.776 0
      vertex 180 330 0
      vertex 137.387 309.863 0
    endloop
  endfacet
  facet normal 0 0 -1
    outer loop
      vertex 65 285 0
      vertex 115.546 290.198 0
      vertex 115 285 0
    endloop
  endfacet
  facet normal 0 0 -1
    outer loop
      vertex 64.4537 290.198 0
      vertex 115.546 290.198 0
      vertex 65 285 0
    endloop
  endfacet
  facet normal 0 0 -1
    outer loop
      vertex 115.546 290.198 0
      vertex 64.4537 290.198 0
      vertex 117.161 295.168 0
    endloop
  endfacet
  facet normal 0 0 -1
    outer loop
      vertex 62.8386 295.168 0
      vertex 117.161 295.168 0
      vertex 64.4537 290.198 0
    endloop
  endfacet
  facet normal 0 0 -1
    outer loop
      vertex 117.161 295.168 0
      vertex 62.8386 295.168 0
      vertex 119.775 299.695 0
    endloop
  endfacet
  facet normal 0 0 -1
    outer loop
      vertex 60.2254 299.695 0
      vertex 119.775 299.695 0
      vertex 62.8386 295.168 0
    endloop
  endfacet
  facet normal 0 0 -1
    outer loop
      vertex 119.775 299.695 0
      vertex 60.2254 299.695 0
      vertex 123.272 303.579 0
    endloop
  endfacet
  facet normal 0 0 -1
    outer loop
      vertex 56.7283 303.579 0
      vertex 123.272 303.579 0
      vertex 60.2254 299.695 0
    endloop
  endfacet
  facet normal 0 0 -1
    outer loop
      vertex 123.272 303.579 0
      vertex 56.7283 303.579 0
      vertex 127.5 306.651 0
    endloop
  endfacet
  facet normal 0 0 -1
    outer loop
      vertex 52.5 306.651 0
      vertex 127.5 306.651 0
      vertex 56.7283 303.579 0
    endloop
  endfacet
  facet normal 0 0 -1
    outer loop
      vertex 127.5 306.651 0
      vertex 52.5 306.651 0
      vertex 132.275 308.776 0
    endloop
  endfacet
  facet normal 0 0 -1
    outer loop
      vertex 47.7254 308.776 0
      vertex 132.275 308.776 0
      vertex 52.5 306.651 0
    endloop
  endfacet
  facet normal 0 0 -1
    outer loop
      vertex 132.275 308.776 0
      vertex 47.7254 308.776 0
      vertex 180 330 0
    endloop
  endfacet
  facet normal 0 0 -1
    outer loop
      vertex 0 330 0
      vertex 47.7254 308.776 0
      vertex 42.6132 309.863 0
    endloop
  endfacet
  facet normal 0 0 -1
    outer loop
      vertex 0 330 0
      vertex 42.6132 309.863 0
      vertex 37.3868 309.863 0
    endloop
  endfacet
  facet normal 0 0 -1
    outer loop
      vertex 0 260 0
      vertex 15.5463 290.198 0
      vertex 15 285 0
    endloop
  endfacet
  facet normal 0 0 -1
    outer loop
      vertex 0 330 0
      vertex 15.5463 290.198 0
      vertex 0 260 0
    endloop
  endfacet
  facet normal 0 0 -1
    outer loop
      vertex 47.7254 308.776 0
      vertex 0 330 0
      vertex 180 330 0
    endloop
  endfacet
  facet normal 0 0 -1
    outer loop
      vertex 32.2746 308.776 0
      vertex 0 330 0
      vertex 37.3868 309.863 0
    endloop
  endfacet
  facet normal 0 0 -1
    outer loop
      vertex 27.5 306.651 0
      vertex 0 330 0
      vertex 32.2746 308.776 0
    endloop
  endfacet
  facet normal 0 0 -1
    outer loop
      vertex 23.2717 303.579 0
      vertex 0 330 0
      vertex 27.5 306.651 0
    endloop
  endfacet
  facet normal 0 0 -1
    outer loop
      vertex 19.7746 299.695 0
      vertex 0 330 0
      vertex 23.2717 303.579 0
    endloop
  endfacet
  facet normal 0 0 -1
    outer loop
      vertex 17.1614 295.168 0
      vertex 0 330 0
      vertex 19.7746 299.695 0
    endloop
  endfacet
  facet normal 0 0 -1
    outer loop
      vertex 15.5463 290.198 0
      vertex 0 330 0
      vertex 17.1614 295.168 0
    endloop
  endfacet
  facet normal 0 -1 0
    outer loop
      vertex 0 260 0
      vertex 180 260 2
      vertex 0 260 2
    endloop
  endfacet
  facet normal 0 -1 -0
    outer loop
      vertex 180 260 2
      vertex 0 260 0
      vertex 180 260 0
    endloop
  endfacet
  facet normal -0.865998 -0.500048 0
    outer loop
      vertex 162.839 295.168 0
      vertex 160.225 299.695 2
      vertex 160.225 299.695 0
    endloop
  endfacet
  facet normal -0.865998 -0.500048 0
    outer loop
      vertex 160.225 299.695 2
      vertex 162.839 295.168 0
      vertex 162.839 295.168 2
    endloop
  endfacet
  facet normal -0.994528 -0.104466 0
    outer loop
      vertex 165 285 0
      vertex 164.454 290.198 2
      vertex 164.454 290.198 0
    endloop
  endfacet
  facet normal -0.994528 -0.104466 0
    outer loop
      vertex 164.454 290.198 2
      vertex 165 285 0
      vertex 165 285 2
    endloop
  endfacet
  facet normal 0.951048 0.309043 0
    outer loop
      vertex 117.161 274.832 2
      vertex 115.546 279.802 0
      vertex 115.546 279.802 2
    endloop
  endfacet
  facet normal 0.951048 0.309043 0
    outer loop
      vertex 115.546 279.802 0
      vertex 117.161 274.832 2
      vertex 117.161 274.832 0
    endloop
  endfacet
  facet normal 0.994528 -0.104466 0
    outer loop
      vertex 115 285 2
      vertex 115.546 290.198 0
      vertex 115.546 290.198 2
    endloop
  endfacet
  facet normal 0.994528 -0.104466 0
    outer loop
      vertex 115.546 290.198 0
      vertex 115 285 2
      vertex 115 285 0
    endloop
  endfacet
  facet normal -0.743161 -0.669113 0
    outer loop
      vertex 160.225 299.695 0
      vertex 156.728 303.579 2
      vertex 156.728 303.579 0
    endloop
  endfacet
  facet normal -0.743161 -0.669113 0
    outer loop
      vertex 156.728 303.579 2
      vertex 160.225 299.695 0
      vertex 160.225 299.695 2
    endloop
  endfacet
  facet normal 0 -1 0
    outer loop
      vertex 137.387 309.863 0
      vertex 142.613 309.863 2
      vertex 137.387 309.863 2
    endloop
  endfacet
  facet normal 0 -1 -0
    outer loop
      vertex 142.613 309.863 2
      vertex 137.387 309.863 0
      vertex 142.613 309.863 0
    endloop
  endfacet
  facet normal -0.207987 -0.978132 0
    outer loop
      vertex 142.613 309.863 0
      vertex 147.725 308.776 2
      vertex 142.613 309.863 2
    endloop
  endfacet
  facet normal -0.207987 -0.978132 -0
    outer loop
      vertex 147.725 308.776 2
      vertex 142.613 309.863 0
      vertex 147.725 308.776 0
    endloop
  endfacet
  facet normal 0.587808 -0.809001 0
    outer loop
      vertex 123.272 303.579 0
      vertex 127.5 306.651 2
      vertex 123.272 303.579 2
    endloop
  endfacet
  facet normal 0.587808 -0.809001 0
    outer loop
      vertex 127.5 306.651 2
      vertex 123.272 303.579 0
      vertex 127.5 306.651 0
    endloop
  endfacet
  facet normal 0.951048 -0.309043 0
    outer loop
      vertex 115.546 290.198 2
      vertex 117.161 295.168 0
      vertex 117.161 295.168 2
    endloop
  endfacet
  facet normal 0.951048 -0.309043 0
    outer loop
      vertex 117.161 295.168 0
      vertex 115.546 290.198 2
      vertex 115.546 290.198 0
    endloop
  endfacet
  facet normal -0.951048 -0.309043 0
    outer loop
      vertex 164.454 290.198 0
      vertex 162.839 295.168 2
      vertex 162.839 295.168 0
    endloop
  endfacet
  facet normal -0.951048 -0.309043 0
    outer loop
      vertex 162.839 295.168 2
      vertex 164.454 290.198 0
      vertex 164.454 290.198 2
    endloop
  endfacet
  facet normal -0.587808 -0.809001 0
    outer loop
      vertex 152.5 306.651 0
      vertex 156.728 303.579 2
      vertex 152.5 306.651 2
    endloop
  endfacet
  facet normal -0.587808 -0.809001 -0
    outer loop
      vertex 156.728 303.579 2
      vertex 152.5 306.651 0
      vertex 156.728 303.579 0
    endloop
  endfacet
  facet normal 0.207987 -0.978132 0
    outer loop
      vertex 132.275 308.776 0
      vertex 137.387 309.863 2
      vertex 132.275 308.776 2
    endloop
  endfacet
  facet normal 0.207987 -0.978132 0
    outer loop
      vertex 137.387 309.863 2
      vertex 132.275 308.776 0
      vertex 137.387 309.863 0
    endloop
  endfacet
  facet normal -0.406582 -0.913614 0
    outer loop
      vertex 147.725 308.776 0
      vertex 152.5 306.651 2
      vertex 147.725 308.776 2
    endloop
  endfacet
  facet normal -0.406582 -0.913614 -0
    outer loop
      vertex 152.5 306.651 2
      vertex 147.725 308.776 0
      vertex 152.5 306.651 0
    endloop
  endfacet
  facet normal 0.994528 0.104466 0
    outer loop
      vertex 115.546 279.802 2
      vertex 115 285 0
      vertex 115 285 2
    endloop
  endfacet
  facet normal 0.994528 0.104466 0
    outer loop
      vertex 115 285 0
      vertex 115.546 279.802 2
      vertex 115.546 279.802 0
    endloop
  endfacet
  facet normal 0.743161 -0.669113 0
    outer loop
      vertex 119.775 299.695 2
      vertex 123.272 303.579 0
      vertex 123.272 303.579 2
    endloop
  endfacet
  facet normal 0.743161 -0.669113 0
    outer loop
      vertex 123.272 303.579 0
      vertex 119.775 299.695 2
      vertex 119.775 299.695 0
    endloop
  endfacet
  facet normal 0.406582 -0.913614 0
    outer loop
      vertex 127.5 306.651 0
      vertex 132.275 308.776 2
      vertex 127.5 306.651 2
    endloop
  endfacet
  facet normal 0.406582 -0.913614 0
    outer loop
      vertex 132.275 308.776 2
      vertex 127.5 306.651 0
      vertex 132.275 308.776 0
    endloop
  endfacet
  facet normal 0.865998 -0.500048 0
    outer loop
      vertex 117.161 295.168 2
      vertex 119.775 299.695 0
      vertex 119.775 299.695 2
    endloop
  endfacet
  facet normal 0.865998 -0.500048 0
    outer loop
      vertex 119.775 299.695 0
      vertex 117.161 295.168 2
      vertex 117.161 295.168 0
    endloop
  endfacet
  facet normal -0.951048 0.309043 0
    outer loop
      vertex 162.839 274.832 0
      vertex 164.454 279.802 2
      vertex 164.454 279.802 0
    endloop
  endfacet
  facet normal -0.951048 0.309043 0
    outer loop
      vertex 164.454 279.802 2
      vertex 162.839 274.832 0
      vertex 162.839 274.832 2
    endloop
  endfacet
  facet normal -0.743161 0.669113 0
    outer loop
      vertex 156.728 266.421 0
      vertex 160.225 270.305 2
      vertex 160.225 270.305 0
    endloop
  endfacet
  facet normal -0.743161 0.669113 0
    outer loop
      vertex 160.225 270.305 2
      vertex 156.728 266.421 0
      vertex 156.728 266.421 2
    endloop
  endfacet
  facet normal -0.994528 0.104466 0
    outer loop
      vertex 164.454 279.802 0
      vertex 165 285 2
      vertex 165 285 0
    endloop
  endfacet
  facet normal -0.994528 0.104466 0
    outer loop
      vertex 165 285 2
      vertex 164.454 279.802 0
      vertex 164.454 279.802 2
    endloop
  endfacet
  facet normal -0.207987 0.978132 0
    outer loop
      vertex 147.725 261.224 0
      vertex 142.613 260.137 2
      vertex 147.725 261.224 2
    endloop
  endfacet
  facet normal -0.207987 0.978132 0
    outer loop
      vertex 142.613 260.137 2
      vertex 147.725 261.224 0
      vertex 142.613 260.137 0
    endloop
  endfacet
  facet normal -0.406582 0.913614 0
    outer loop
      vertex 152.5 263.349 0
      vertex 147.725 261.224 2
      vertex 152.5 263.349 2
    endloop
  endfacet
  facet normal -0.406582 0.913614 0
    outer loop
      vertex 147.725 261.224 2
      vertex 152.5 263.349 0
      vertex 147.725 261.224 0
    endloop
  endfacet
  facet normal -0.587808 0.809001 0
    outer loop
      vertex 156.728 266.421 0
      vertex 152.5 263.349 2
      vertex 156.728 266.421 2
    endloop
  endfacet
  facet normal -0.587808 0.809001 0
    outer loop
      vertex 152.5 263.349 2
      vertex 156.728 266.421 0
      vertex 152.5 263.349 0
    endloop
  endfacet
  facet normal 0 1 -0
    outer loop
      vertex 142.613 260.137 0
      vertex 137.387 260.137 2
      vertex 142.613 260.137 2
    endloop
  endfacet
  facet normal 0 1 0
    outer loop
      vertex 137.387 260.137 2
      vertex 142.613 260.137 0
      vertex 137.387 260.137 0
    endloop
  endfacet
  facet normal 0.406582 0.913614 -0
    outer loop
      vertex 132.275 261.224 0
      vertex 127.5 263.349 2
      vertex 132.275 261.224 2
    endloop
  endfacet
  facet normal 0.406582 0.913614 0
    outer loop
      vertex 127.5 263.349 2
      vertex 132.275 261.224 0
      vertex 127.5 263.349 0
    endloop
  endfacet
  facet normal 0.207987 0.978132 -0
    outer loop
      vertex 137.387 260.137 0
      vertex 132.275 261.224 2
      vertex 137.387 260.137 2
    endloop
  endfacet
  facet normal 0.207987 0.978132 0
    outer loop
      vertex 132.275 261.224 2
      vertex 137.387 260.137 0
      vertex 132.275 261.224 0
    endloop
  endfacet
  facet normal 0.743161 0.669113 0
    outer loop
      vertex 123.272 266.421 2
      vertex 119.775 270.305 0
      vertex 119.775 270.305 2
    endloop
  endfacet
  facet normal 0.743161 0.669113 0
    outer loop
      vertex 119.775 270.305 0
      vertex 123.272 266.421 2
      vertex 123.272 266.421 0
    endloop
  endfacet
  facet normal 0.865998 0.500048 0
    outer loop
      vertex 119.775 270.305 2
      vertex 117.161 274.832 0
      vertex 117.161 274.832 2
    endloop
  endfacet
  facet normal 0.865998 0.500048 0
    outer loop
      vertex 117.161 274.832 0
      vertex 119.775 270.305 2
      vertex 119.775 270.305 0
    endloop
  endfacet
  facet normal 0.587808 0.809001 -0
    outer loop
      vertex 127.5 263.349 0
      vertex 123.272 266.421 2
      vertex 127.5 263.349 2
    endloop
  endfacet
  facet normal 0.587808 0.809001 0
    outer loop
      vertex 123.272 266.421 2
      vertex 127.5 263.349 0
      vertex 123.272 266.421 0
    endloop
  endfacet
  facet normal -0.865998 0.500048 0
    outer loop
      vertex 160.225 270.305 0
      vertex 162.839 274.832 2
      vertex 162.839 274.832 0
    endloop
  endfacet
  facet normal -0.865998 0.500048 0
    outer loop
      vertex 162.839 274.832 2
      vertex 160.225 270.305 0
      vertex 160.225 270.305 2
    endloop
  endfacet
  facet normal -0.866064 -0.499933 0
    outer loop
      vertex 62.8386 295.168 0
      vertex 60.2254 299.695 2
      vertex 60.2254 299.695 0
    endloop
  endfacet
  facet normal -0.866064 -0.499933 0
    outer loop
      vertex 60.2254 299.695 2
      vertex 62.8386 295.168 0
      vertex 62.8386 295.168 2
    endloop
  endfacet
  facet normal -0.994523 -0.104522 0
    outer loop
      vertex 65 285 0
      vertex 64.4537 290.198 2
      vertex 64.4537 290.198 0
    endloop
  endfacet
  facet normal -0.994523 -0.104522 0
    outer loop
      vertex 64.4537 290.198 2
      vertex 65 285 0
      vertex 65 285 2
    endloop
  endfacet
  facet normal 0.951043 0.30906 0
    outer loop
      vertex 17.1614 274.832 2
      vertex 15.5463 279.802 0
      vertex 15.5463 279.802 2
    endloop
  endfacet
  facet normal 0.951043 0.30906 0
    outer loop
      vertex 15.5463 279.802 0
      vertex 17.1614 274.832 2
      vertex 17.1614 274.832 0
    endloop
  endfacet
  facet normal 0.994523 -0.104522 0
    outer loop
      vertex 15 285 2
      vertex 15.5463 290.198 0
      vertex 15.5463 290.198 2
    endloop
  endfacet
  facet normal 0.994523 -0.104522 0
    outer loop
      vertex 15.5463 290.198 0
      vertex 15 285 2
      vertex 15 285 0
    endloop
  endfacet
  facet normal -0.743151 -0.669123 0
    outer loop
      vertex 60.2254 299.695 0
      vertex 56.7283 303.579 2
      vertex 56.7283 303.579 0
    endloop
  endfacet
  facet normal -0.743151 -0.669123 0
    outer loop
      vertex 56.7283 303.579 2
      vertex 60.2254 299.695 0
      vertex 60.2254 299.695 2
    endloop
  endfacet
  facet normal 0 -1 0
    outer loop
      vertex 37.3868 309.863 0
      vertex 42.6132 309.863 2
      vertex 37.3868 309.863 2
    endloop
  endfacet
  facet normal 0 -1 -0
    outer loop
      vertex 42.6132 309.863 2
      vertex 37.3868 309.863 0
      vertex 42.6132 309.863 0
    endloop
  endfacet
  facet normal -0.207979 -0.978133 0
    outer loop
      vertex 42.6132 309.863 0
      vertex 47.7254 308.776 2
      vertex 42.6132 309.863 2
    endloop
  endfacet
  facet normal -0.207979 -0.978133 -0
    outer loop
      vertex 47.7254 308.776 2
      vertex 42.6132 309.863 0
      vertex 47.7254 308.776 0
    endloop
  endfacet
  facet normal 0.58778 -0.809021 0
    outer loop
      vertex 23.2717 303.579 0
      vertex 27.5 306.651 2
      vertex 23.2717 303.579 2
    endloop
  endfacet
  facet normal 0.58778 -0.809021 0
    outer loop
      vertex 27.5 306.651 2
      vertex 23.2717 303.579 0
      vertex 27.5 306.651 0
    endloop
  endfacet
  facet normal -0.58778 -0.809021 0
    outer loop
      vertex 52.5 306.651 0
      vertex 56.7283 303.579 2
      vertex 52.5 306.651 2
    endloop
  endfacet
  facet normal -0.58778 -0.809021 -0
    outer loop
      vertex 56.7283 303.579 2
      vertex 52.5 306.651 0
      vertex 56.7283 303.579 0
    endloop
  endfacet
  facet normal 0.207979 -0.978133 0
    outer loop
      vertex 32.2746 308.776 0
      vertex 37.3868 309.863 2
      vertex 32.2746 308.776 2
    endloop
  endfacet
  facet normal 0.207979 -0.978133 0
    outer loop
      vertex 37.3868 309.863 2
      vertex 32.2746 308.776 0
      vertex 37.3868 309.863 0
    endloop
  endfacet
  facet normal -0.406611 -0.913602 0
    outer loop
      vertex 47.7254 308.776 0
      vertex 52.5 306.651 2
      vertex 47.7254 308.776 2
    endloop
  endfacet
  facet normal -0.406611 -0.913602 -0
    outer loop
      vertex 52.5 306.651 2
      vertex 47.7254 308.776 0
      vertex 52.5 306.651 0
    endloop
  endfacet
  facet normal 0.994523 0.104522 0
    outer loop
      vertex 15.5463 279.802 2
      vertex 15 285 0
      vertex 15 285 2
    endloop
  endfacet
  facet normal 0.994523 0.104522 0
    outer loop
      vertex 15 285 0
      vertex 15.5463 279.802 2
      vertex 15.5463 279.802 0
    endloop
  endfacet
  facet normal 0.951043 -0.30906 0
    outer loop
      vertex 15.5463 290.198 2
      vertex 17.1614 295.168 0
      vertex 17.1614 295.168 2
    endloop
  endfacet
  facet normal 0.951043 -0.30906 0
    outer loop
      vertex 17.1614 295.168 0
      vertex 15.5463 290.198 2
      vertex 15.5463 290.198 0
    endloop
  endfacet
  facet normal 0.743151 -0.669123 0
    outer loop
      vertex 19.7746 299.695 2
      vertex 23.2717 303.579 0
      vertex 23.2717 303.579 2
    endloop
  endfacet
  facet normal 0.743151 -0.669123 0
    outer loop
      vertex 23.2717 303.579 0
      vertex 19.7746 299.695 2
      vertex 19.7746 299.695 0
    endloop
  endfacet
  facet normal 0.406611 -0.913602 0
    outer loop
      vertex 27.5 306.651 0
      vertex 32.2746 308.776 2
      vertex 27.5 306.651 2
    endloop
  endfacet
  facet normal 0.406611 -0.913602 0
    outer loop
      vertex 32.2746 308.776 2
      vertex 27.5 306.651 0
      vertex 32.2746 308.776 0
    endloop
  endfacet
  facet normal 0.866064 -0.499933 0
    outer loop
      vertex 17.1614 295.168 2
      vertex 19.7746 299.695 0
      vertex 19.7746 299.695 2
    endloop
  endfacet
  facet normal 0.866064 -0.499933 0
    outer loop
      vertex 19.7746 299.695 0
      vertex 17.1614 295.168 2
      vertex 17.1614 295.168 0
    endloop
  endfacet
  facet normal -0.951043 0.30906 0
    outer loop
      vertex 62.8386 274.832 0
      vertex 64.4537 279.802 2
      vertex 64.4537 279.802 0
    endloop
  endfacet
  facet normal -0.951043 0.30906 0
    outer loop
      vertex 64.4537 279.802 2
      vertex 62.8386 274.832 0
      vertex 62.8386 274.832 2
    endloop
  endfacet
  facet normal -0.743151 0.669123 0
    outer loop
      vertex 56.7283 266.421 0
      vertex 60.2254 270.305 2
      vertex 60.2254 270.305 0
    endloop
  endfacet
  facet normal -0.743151 0.669123 0
    outer loop
      vertex 60.2254 270.305 2
      vertex 56.7283 266.421 0
      vertex 56.7283 266.421 2
    endloop
  endfacet
  facet normal -0.994523 0.104522 0
    outer loop
      vertex 64.4537 279.802 0
      vertex 65 285 2
      vertex 65 285 0
    endloop
  endfacet
  facet normal -0.994523 0.104522 0
    outer loop
      vertex 65 285 2
      vertex 64.4537 279.802 0
      vertex 64.4537 279.802 2
    endloop
  endfacet
  facet normal -0.951043 -0.30906 0
    outer loop
      vertex 64.4537 290.198 0
      vertex 62.8386 295.168 2
      vertex 62.8386 295.168 0
    endloop
  endfacet
  facet normal -0.951043 -0.30906 0
    outer loop
      vertex 62.8386 295.168 2
      vertex 64.4537 290.198 0
      vertex 64.4537 290.198 2
    endloop
  endfacet
  facet normal -0.207979 0.978133 0
    outer loop
      vertex 47.7254 261.224 0
      vertex 42.6132 260.137 2
      vertex 47.7254 261.224 2
    endloop
  endfacet
  facet normal -0.207979 0.978133 0
    outer loop
      vertex 42.6132 260.137 2
      vertex 47.7254 261.224 0
      vertex 42.6132 260.137 0
    endloop
  endfacet
  facet normal -0.406611 0.913602 0
    outer loop
      vertex 52.5 263.349 0
      vertex 47.7254 261.224 2
      vertex 52.5 263.349 2
    endloop
  endfacet
  facet normal -0.406611 0.913602 0
    outer loop
      vertex 47.7254 261.224 2
      vertex 52.5 263.349 0
      vertex 47.7254 261.224 0
    endloop
  endfacet
  facet normal -0.58778 0.809021 0
    outer loop
      vertex 56.7283 266.421 0
      vertex 52.5 263.349 2
      vertex 56.7283 266.421 2
    endloop
  endfacet
  facet normal -0.58778 0.809021 0
    outer loop
      vertex 52.5 263.349 2
      vertex 56.7283 266.421 0
      vertex 52.5 263.349 0
    endloop
  endfacet
  facet normal 0 1 -0
    outer loop
      vertex 42.6132 260.137 0
      vertex 37.3868 260.137 2
      vertex 42.6132 260.137 2
    endloop
  endfacet
  facet normal 0 1 0
    outer loop
      vertex 37.3868 260.137 2
      vertex 42.6132 260.137 0
      vertex 37.3868 260.137 0
    endloop
  endfacet
  facet normal 0.406611 0.913602 -0
    outer loop
      vertex 32.2746 261.224 0
      vertex 27.5 263.349 2
      vertex 32.2746 261.224 2
    endloop
  endfacet
  facet normal 0.406611 0.913602 0
    outer loop
      vertex 27.5 263.349 2
      vertex 32.2746 261.224 0
      vertex 27.5 263.349 0
    endloop
  endfacet
  facet normal 0.207979 0.978133 -0
    outer loop
      vertex 37.3868 260.137 0
      vertex 32.2746 261.224 2
      vertex 37.3868 260.137 2
    endloop
  endfacet
  facet normal 0.207979 0.978133 0
    outer loop
      vertex 32.2746 261.224 2
      vertex 37.3868 260.137 0
      vertex 32.2746 261.224 0
    endloop
  endfacet
  facet normal 0.743151 0.669123 0
    outer loop
      vertex 23.2717 266.421 2
      vertex 19.7746 270.305 0
      vertex 19.7746 270.305 2
    endloop
  endfacet
  facet normal 0.743151 0.669123 0
    outer loop
      vertex 19.7746 270.305 0
      vertex 23.2717 266.421 2
      vertex 23.2717 266.421 0
    endloop
  endfacet
  facet normal 0.866064 0.499933 0
    outer loop
      vertex 19.7746 270.305 2
      vertex 17.1614 274.832 0
      vertex 17.1614 274.832 2
    endloop
  endfacet
  facet normal 0.866064 0.499933 0
    outer loop
      vertex 17.1614 274.832 0
      vertex 19.7746 270.305 2
      vertex 19.7746 270.305 0
    endloop
  endfacet
  facet normal 0.58778 0.809021 -0
    outer loop
      vertex 27.5 263.349 0
      vertex 23.2717 266.421 2
      vertex 27.5 263.349 2
    endloop
  endfacet
  facet normal 0.58778 0.809021 0
    outer loop
      vertex 23.2717 266.421 2
      vertex 27.5 263.349 0
      vertex 23.2717 266.421 0
    endloop
  endfacet
  facet normal -0.866064 0.499933 0
    outer loop
      vertex 60.2254 270.305 0
      vertex 62.8386 274.832 2
      vertex 62.8386 274.832 0
    endloop
  endfacet
  facet normal -0.866064 0.499933 0
    outer loop
      vertex 62.8386 274.832 2
      vertex 60.2254 270.305 0
      vertex 60.2254 270.305 2
    endloop
  endfacet
  facet normal -1 0 0
    outer loop
      vertex 2 12 0
      vertex 2 168 2
      vertex 2 168 0
    endloop
  endfacet
  facet normal -1 -0 0
    outer loop
      vertex 2 168 2
      vertex 2 12 0
      vertex 2 12 2
    endloop
  endfacet
  facet normal -0 0 1
    outer loop
      vertex 2 168 2
      vertex 178 12 2
      vertex 178 168 2
    endloop
  endfacet
  facet normal 0 0 1
    outer loop
      vertex 178 12 2
      vertex 2 168 2
      vertex 2 12 2
    endloop
  endfacet
  facet normal 1 -0 0
    outer loop
      vertex 178 12 2
      vertex 178 168 0
      vertex 178 168 2
    endloop
  endfacet
  facet normal 1 0 0
    outer loop
      vertex 178 168 0
      vertex 178 12 2
      vertex 178 12 0
    endloop
  endfacet
  facet normal 0 0 -1
    outer loop
      vertex 2 12 0
      vertex 178 168 0
      vertex 178 12 0
    endloop
  endfacet
  facet normal -0 0 -1
    outer loop
      vertex 178 168 0
      vertex 2 12 0
      vertex 2 168 0
    endloop
  endfacet
  facet normal 0 -1 0
    outer loop
      vertex 2 12 0
      vertex 178 12 2
      vertex 2 12 2
    endloop
  endfacet
  facet normal 0 -1 -0
    outer loop
      vertex 178 12 2
      vertex 2 12 0
      vertex 178 12 0
    endloop
  endfacet
  facet normal 0 1 -0
    outer loop
      vertex 178 168 0
      vertex 2 168 2
      vertex 178 168 2
    endloop
  endfacet
  facet normal 0 1 0
    outer loop
      vertex 2 168 2
      vertex 178 168 0
      vertex 2 168 0
    endloop
  endfacet
endsolid OpenSCAD_Model
