<?xml version="1.0" standalone="no"?>
<!DOCTYPE svg PUBLIC "-//W3C//DTD SVG 1.1//EN" "http://www.w3.org/Graphics/SVG/1.1/DTD/svg11.dtd">
<svg width="180mm" height="318mm" viewBox="0 -330 180 318" xmlns="http://www.w3.org/2000/svg" version="1.1">
<title>OpenSCAD Model</title>
<path d="
M 180,-330 L 0,-330 L 0,-260 L 180,-260 z
M 137.387,-260.137 L 132.275,-261.224 L 127.5,-263.349 L 123.272,-266.421 L 119.775,-270.305 L 117.161,-274.832
 L 115.546,-279.802 L 115,-285 L 115.546,-290.198 L 117.161,-295.168 L 119.775,-299.695 L 123.272,-303.579
 L 127.5,-306.651 L 132.275,-308.776 L 137.387,-309.863 L 142.613,-309.863 L 147.725,-308.776 L 152.5,-306.651
 L 156.728,-303.579 L 160.225,-299.695 L 162.839,-295.168 L 164.454,-290.198 L 165,-285 L 164.454,-279.802
 L 162.839,-274.832 L 160.225,-270.305 L 156.728,-266.421 L 152.5,-263.349 L 147.725,-261.224 L 142.613,-260.137
 z
M 37.3868,-260.137 L 32.2746,-261.224 L 27.5,-263.349 L 23.2717,-266.421 L 19.7746,-270.305 L 17.1614,-274.832
 L 15.5463,-279.802 L 15,-285 L 15.5463,-290.198 L 17.1614,-295.168 L 19.7746,-299.695 L 23.2717,-303.579
 L 27.5,-306.651 L 32.2746,-308.776 L 37.3868,-309.863 L 42.6132,-309.863 L 47.7254,-308.776 L 52.5,-306.651
 L 56.7283,-303.579 L 60.2254,-299.695 L 62.8386,-295.168 L 64.4537,-290.198 L 65,-285 L 64.4537,-279.802
 L 62.8386,-274.832 L 60.2254,-270.305 L 56.7283,-266.421 L 52.5,-263.349 L 47.7254,-261.224 L 42.6132,-260.137
 z
M 180,-255 L 0,-255 L 0,-185 L 180,-185 z
M 87.3868,-185.137 L 82.2746,-186.224 L 77.5,-188.349 L 73.2717,-191.421 L 69.7746,-195.305 L 67.1614,-199.832
 L 65.5463,-204.802 L 65,-210 L 65.5463,-215.198 L 67.1614,-220.168 L 69.7746,-224.695 L 73.2717,-228.579
 L 77.5,-231.651 L 82.2746,-233.776 L 87.3868,-234.863 L 92.6132,-234.863 L 97.7254,-233.776 L 102.5,-231.651
 L 106.728,-228.579 L 110.225,-224.695 L 112.839,-220.168 L 114.454,-215.198 L 115,-210 L 114.454,-204.802
 L 112.839,-199.832 L 110.225,-195.305 L 106.728,-191.421 L 102.5,-188.349 L 97.7254,-186.224 L 92.6132,-185.137
 z
M 178,-168 L 2,-168 L 2,-12 L 178,-12 z
" stroke="black" fill="lightgray" stroke-width="0.5"/>
</svg>
