<?xml version="1.0" standalone="no"?>
<!DOCTYPE svg PUBLIC "-//W3C//DTD SVG 1.1//EN" "http://www.w3.org/Graphics/SVG/1.1/DTD/svg11.dtd">
<svg width="180mm" height="145mm" viewBox="0 -145 180 145" xmlns="http://www.w3.org/2000/svg" version="1.1">
<title>OpenSCAD Model</title>
<path d="
M 180,-145 L 0,-145 L 0,-75 L 180,-75 z
M 137.387,-75.137 L 132.275,-76.2236 L 127.5,-78.3494 L 123.272,-81.4214 L 119.775,-85.3054 L 117.161,-89.8316
 L 115.546,-94.8022 L 115,-100 L 115.546,-105.198 L 117.161,-110.168 L 119.775,-114.695 L 123.272,-118.579
 L 127.5,-121.651 L 132.275,-123.776 L 137.387,-124.863 L 142.613,-124.863 L 147.725,-123.776 L 152.5,-121.651
 L 156.728,-118.579 L 160.225,-114.695 L 162.839,-110.168 L 164.454,-105.198 L 165,-100 L 164.454,-94.8022
 L 162.839,-89.8316 L 160.225,-85.3054 L 156.728,-81.4214 L 152.5,-78.3494 L 147.725,-76.2236 L 142.613,-75.137
 z
M 37.3868,-75.137 L 32.2746,-76.2236 L 27.5,-78.3494 L 23.2717,-81.4214 L 19.7746,-85.3054 L 17.1614,-89.8316
 L 15.5463,-94.8022 L 15,-100 L 15.5463,-105.198 L 17.1614,-110.168 L 19.7746,-114.695 L 23.2717,-118.579
 L 27.5,-121.651 L 32.2746,-123.776 L 37.3868,-124.863 L 42.6132,-124.863 L 47.7254,-123.776 L 52.5,-121.651
 L 56.7283,-118.579 L 60.2254,-114.695 L 62.8386,-110.168 L 64.4537,-105.198 L 65,-100 L 64.4537,-94.8022
 L 62.8386,-89.8316 L 60.2254,-85.3054 L 56.7283,-81.4214 L 52.5,-78.3494 L 47.7254,-76.2236 L 42.6132,-75.137
 z
M 180,-70 L 0,-70 L 0,-0 L 180,-0 z
M 87.3868,-0.136948 L 82.2746,-1.22359 L 77.5,-3.34935 L 73.2717,-6.42137 L 69.7746,-10.3054 L 67.1614,-14.8316
 L 65.5463,-19.8022 L 65,-25 L 65.5463,-30.1978 L 67.1614,-35.1684 L 69.7746,-39.6946 L 73.2717,-43.5786
 L 77.5,-46.6506 L 82.2746,-48.7764 L 87.3868,-49.863 L 92.6132,-49.863 L 97.7254,-48.7764 L 102.5,-46.6506
 L 106.728,-43.5786 L 110.225,-39.6946 L 112.839,-35.1684 L 114.454,-30.1978 L 115,-25 L 114.454,-19.8022
 L 112.839,-14.8316 L 110.225,-10.3054 L 106.728,-6.42137 L 102.5,-3.34935 L 97.7254,-1.22359 L 92.6132,-0.136948
 z
" stroke="black" fill="lightgray" stroke-width="0.5"/>
</svg>
