solid OpenSCAD_Model
  facet normal -1 0 0
    outer loop
      vertex 0 0 0
      vertex 0 66 2
      vertex 0 66 0
    endloop
  endfacet
  facet normal -1 -0 0
    outer loop
      vertex 0 66 2
      vertex 0 0 0
      vertex 0 0 2
    endloop
  endfacet
  facet normal -0 0 1
    outer loop
      vertex 0 66 2
      vertex 168 0 2
      vertex 168 66 2
    endloop
  endfacet
  facet normal 0 0 1
    outer loop
      vertex 168 0 2
      vertex 0 66 2
      vertex 0 0 2
    endloop
  endfacet
  facet normal 1 -0 0
    outer loop
      vertex 168 0 2
      vertex 168 66 0
      vertex 168 66 2
    endloop
  endfacet
  facet normal 1 0 0
    outer loop
      vertex 168 66 0
      vertex 168 0 2
      vertex 168 0 0
    endloop
  endfacet
  facet normal 0 1 -0
    outer loop
      vertex 168 66 0
      vertex 0 66 2
      vertex 168 66 2
    endloop
  endfacet
  facet normal 0 1 0
    outer loop
      vertex 0 66 2
      vertex 168 66 0
      vertex 0 66 0
    endloop
  endfacet
  facet normal 0 0 -1
    outer loop
      vertex 0 0 0
      vertex 168 66 0
      vertex 168 0 0
    endloop
  endfacet
  facet normal -0 0 -1
    outer loop
      vertex 168 66 0
      vertex 0 0 0
      vertex 0 66 0
    endloop
  endfacet
  facet normal 0 -1 0
    outer loop
      vertex 0 0 0
      vertex 168 0 2
      vertex 0 0 2
    endloop
  endfacet
  facet normal 0 -1 -0
    outer loop
      vertex 168 0 2
      vertex 0 0 0
      vertex 168 0 0
    endloop
  endfacet
  facet normal -1 0 0
    outer loop
      vertex 181 0 0
      vertex 181 66 2
      vertex 181 66 0
    endloop
  endfacet
  facet normal -1 -0 0
    outer loop
      vertex 181 66 2
      vertex 181 0 0
      vertex 181 0 2
    endloop
  endfacet
  facet normal -0 0 1
    outer loop
      vertex 181 66 2
      vertex 349 0 2
      vertex 349 66 2
    endloop
  endfacet
  facet normal 0 0 1
    outer loop
      vertex 349 0 2
      vertex 181 66 2
      vertex 181 0 2
    endloop
  endfacet
  facet normal 1 -0 0
    outer loop
      vertex 349 0 2
      vertex 349 66 0
      vertex 349 66 2
    endloop
  endfacet
  facet normal 1 0 0
    outer loop
      vertex 349 66 0
      vertex 349 0 2
      vertex 349 0 0
    endloop
  endfacet
  facet normal 0 1 -0
    outer loop
      vertex 349 66 0
      vertex 181 66 2
      vertex 349 66 2
    endloop
  endfacet
  facet normal 0 1 0
    outer loop
      vertex 181 66 2
      vertex 349 66 0
      vertex 181 66 0
    endloop
  endfacet
  facet normal 0 0 -1
    outer loop
      vertex 181 0 0
      vertex 349 66 0
      vertex 349 0 0
    endloop
  endfacet
  facet normal -0 0 -1
    outer loop
      vertex 349 66 0
      vertex 181 0 0
      vertex 181 66 0
    endloop
  endfacet
  facet normal 0 -1 0
    outer loop
      vertex 181 0 0
      vertex 349 0 2
      vertex 181 0 2
    endloop
  endfacet
  facet normal 0 -1 -0
    outer loop
      vertex 349 0 2
      vertex 181 0 0
      vertex 349 0 0
    endloop
  endfacet
endsolid OpenSCAD_Model
