solid OpenSCAD_Model
  facet normal 0.994521 0.104537 0
    outer loop
      vertex 22.65 0 1
      vertex 22.155 4.7092 -1
      vertex 22.155 4.7092 1
    endloop
  endfacet
  facet normal 0.994521 0.104537 0
    outer loop
      vertex 22.155 4.7092 -1
      vertex 22.65 0 1
      vertex 22.65 0 -1
    endloop
  endfacet
  facet normal -0.994521 0.104537 0
    outer loop
      vertex -22.65 0 -1
      vertex -22.155 4.7092 1
      vertex -22.155 4.7092 -1
    endloop
  endfacet
  facet normal -0.994521 0.104537 0
    outer loop
      vertex -22.155 4.7092 1
      vertex -22.65 0 -1
      vertex -22.65 0 1
    endloop
  endfacet
  facet normal 0 1 -0
    outer loop
      vertex 2.36757 22.5259 -1
      vertex -2.36757 22.5259 1
      vertex 2.36757 22.5259 1
    endloop
  endfacet
  facet normal 0 1 0
    outer loop
      vertex -2.36757 22.5259 1
      vertex 2.36757 22.5259 -1
      vertex -2.36757 22.5259 -1
    endloop
  endfacet
  facet normal 0.587794 0.809011 -0
    outer loop
      vertex 15.1558 16.8322 -1
      vertex 11.325 19.6155 1
      vertex 15.1558 16.8322 1
    endloop
  endfacet
  facet normal 0.587794 0.809011 0
    outer loop
      vertex 11.325 19.6155 1
      vertex 15.1558 16.8322 -1
      vertex 11.325 19.6155 -1
    endloop
  endfacet
  facet normal -0.587794 0.809011 0
    outer loop
      vertex -11.325 19.6155 -1
      vertex -15.1558 16.8322 1
      vertex -11.325 19.6155 1
    endloop
  endfacet
  facet normal -0.587794 0.809011 0
    outer loop
      vertex -15.1558 16.8322 1
      vertex -11.325 19.6155 -1
      vertex -15.1558 16.8322 -1
    endloop
  endfacet
  facet normal -0.406727 0.91355 0
    outer loop
      vertex -6.99923 21.5414 -1
      vertex -11.325 19.6155 1
      vertex -6.99923 21.5414 1
    endloop
  endfacet
  facet normal -0.406727 0.91355 0
    outer loop
      vertex -11.325 19.6155 1
      vertex -6.99923 21.5414 -1
      vertex -11.325 19.6155 -1
    endloop
  endfacet
  facet normal 0 0 -1
    outer loop
      vertex 17.5 0 -1
      vertex 22.65 0 -1
      vertex 22.155 -4.7092 -1
    endloop
  endfacet
  facet normal 0 0 -1
    outer loop
      vertex 17.1176 -3.63845 -1
      vertex 22.155 -4.7092 -1
      vertex 20.6918 -9.21258 -1
    endloop
  endfacet
  facet normal 0 0 -1
    outer loop
      vertex 22.65 0 -1
      vertex 17.5 0 -1
      vertex 22.155 4.7092 -1
    endloop
  endfacet
  facet normal 0 0 -1
    outer loop
      vertex 15.987 -7.11789 -1
      vertex 20.6918 -9.21258 -1
      vertex 18.3242 -13.3133 -1
    endloop
  endfacet
  facet normal 0 0 -1
    outer loop
      vertex 17.1176 3.63845 -1
      vertex 22.155 4.7092 -1
      vertex 17.5 0 -1
    endloop
  endfacet
  facet normal -0 0 -1
    outer loop
      vertex 22.155 4.7092 -1
      vertex 17.1176 3.63845 -1
      vertex 20.6918 9.21258 -1
    endloop
  endfacet
  facet normal 0 0 -1
    outer loop
      vertex 22.155 -4.7092 -1
      vertex 17.1176 -3.63845 -1
      vertex 17.5 0 -1
    endloop
  endfacet
  facet normal 0 0 -1
    outer loop
      vertex 20.6918 -9.21258 -1
      vertex 15.987 -7.11789 -1
      vertex 17.1176 -3.63845 -1
    endloop
  endfacet
  facet normal 0 0 -1
    outer loop
      vertex 14.1578 -10.2862 -1
      vertex 18.3242 -13.3133 -1
      vertex 15.1558 -16.8322 -1
    endloop
  endfacet
  facet normal 0 0 -1
    outer loop
      vertex 18.3242 -13.3133 -1
      vertex 14.1578 -10.2862 -1
      vertex 15.987 -7.11789 -1
    endloop
  endfacet
  facet normal 0 0 -1
    outer loop
      vertex 15.1558 -16.8322 -1
      vertex 11.7098 -13.005 -1
      vertex 14.1578 -10.2862 -1
    endloop
  endfacet
  facet normal 0 0 -1
    outer loop
      vertex 11.325 -19.6155 -1
      vertex 11.7098 -13.005 -1
      vertex 15.1558 -16.8322 -1
    endloop
  endfacet
  facet normal 0 0 -1
    outer loop
      vertex 11.325 -19.6155 -1
      vertex 8.75 -15.1554 -1
      vertex 11.7098 -13.005 -1
    endloop
  endfacet
  facet normal 0 0 -1
    outer loop
      vertex 6.99923 -21.5414 -1
      vertex 8.75 -15.1554 -1
      vertex 11.325 -19.6155 -1
    endloop
  endfacet
  facet normal 0 0 -1
    outer loop
      vertex 6.99923 -21.5414 -1
      vertex 5.4078 -16.6435 -1
      vertex 8.75 -15.1554 -1
    endloop
  endfacet
  facet normal 0 0 -1
    outer loop
      vertex 2.36757 -22.5259 -1
      vertex 5.4078 -16.6435 -1
      vertex 6.99923 -21.5414 -1
    endloop
  endfacet
  facet normal 0 0 -1
    outer loop
      vertex 2.36757 -22.5259 -1
      vertex 1.82925 -17.4041 -1
      vertex 5.4078 -16.6435 -1
    endloop
  endfacet
  facet normal 0 0 -1
    outer loop
      vertex 2.36757 -22.5259 -1
      vertex -1.82925 -17.4041 -1
      vertex 1.82925 -17.4041 -1
    endloop
  endfacet
  facet normal 0 0 -1
    outer loop
      vertex -2.36757 -22.5259 -1
      vertex -1.82925 -17.4041 -1
      vertex 2.36757 -22.5259 -1
    endloop
  endfacet
  facet normal 0 0 -1
    outer loop
      vertex -2.36757 -22.5259 -1
      vertex -5.4078 -16.6435 -1
      vertex -1.82925 -17.4041 -1
    endloop
  endfacet
  facet normal 0 0 -1
    outer loop
      vertex -6.99923 -21.5414 -1
      vertex -5.4078 -16.6435 -1
      vertex -2.36757 -22.5259 -1
    endloop
  endfacet
  facet normal 0 0 -1
    outer loop
      vertex -6.99923 -21.5414 -1
      vertex -8.75 -15.1554 -1
      vertex -5.4078 -16.6435 -1
    endloop
  endfacet
  facet normal 0 0 -1
    outer loop
      vertex -11.325 -19.6155 -1
      vertex -8.75 -15.1554 -1
      vertex -6.99923 -21.5414 -1
    endloop
  endfacet
  facet normal 0 0 -1
    outer loop
      vertex -11.325 -19.6155 -1
      vertex -11.7098 -13.005 -1
      vertex -8.75 -15.1554 -1
    endloop
  endfacet
  facet normal 0 0 -1
    outer loop
      vertex -15.1558 -16.8322 -1
      vertex -11.7098 -13.005 -1
      vertex -11.325 -19.6155 -1
    endloop
  endfacet
  facet normal -0 0 -1
    outer loop
      vertex -11.7098 -13.005 -1
      vertex -15.1558 -16.8322 -1
      vertex -14.1578 -10.2862 -1
    endloop
  endfacet
  facet normal 0 0 -1
    outer loop
      vertex -18.3242 -13.3133 -1
      vertex -14.1578 -10.2862 -1
      vertex -15.1558 -16.8322 -1
    endloop
  endfacet
  facet normal -0 0 -1
    outer loop
      vertex -14.1578 -10.2862 -1
      vertex -18.3242 -13.3133 -1
      vertex -15.987 -7.11789 -1
    endloop
  endfacet
  facet normal -0 0 -1
    outer loop
      vertex -15.987 -7.11789 -1
      vertex -20.6918 -9.21258 -1
      vertex -17.1176 -3.63845 -1
    endloop
  endfacet
  facet normal 0 0 -1
    outer loop
      vertex -20.6918 -9.21258 -1
      vertex -15.987 -7.11789 -1
      vertex -18.3242 -13.3133 -1
    endloop
  endfacet
  facet normal 0 0 -1
    outer loop
      vertex 15.987 7.11789 -1
      vertex 20.6918 9.21258 -1
      vertex 17.1176 3.63845 -1
    endloop
  endfacet
  facet normal -0 0 -1
    outer loop
      vertex 20.6918 9.21258 -1
      vertex 15.987 7.11789 -1
      vertex 18.3242 13.3133 -1
    endloop
  endfacet
  facet normal 0 0 -1
    outer loop
      vertex 14.1578 10.2862 -1
      vertex 18.3242 13.3133 -1
      vertex 15.987 7.11789 -1
    endloop
  endfacet
  facet normal -0 0 -1
    outer loop
      vertex 18.3242 13.3133 -1
      vertex 14.1578 10.2862 -1
      vertex 15.1558 16.8322 -1
    endloop
  endfacet
  facet normal 0 0 -1
    outer loop
      vertex 11.7098 13.005 -1
      vertex 15.1558 16.8322 -1
      vertex 14.1578 10.2862 -1
    endloop
  endfacet
  facet normal 0 0 -1
    outer loop
      vertex 11.7098 13.005 -1
      vertex 11.325 19.6155 -1
      vertex 15.1558 16.8322 -1
    endloop
  endfacet
  facet normal 0 0 -1
    outer loop
      vertex 8.75 15.1554 -1
      vertex 11.325 19.6155 -1
      vertex 11.7098 13.005 -1
    endloop
  endfacet
  facet normal 0 0 -1
    outer loop
      vertex 8.75 15.1554 -1
      vertex 6.99923 21.5414 -1
      vertex 11.325 19.6155 -1
    endloop
  endfacet
  facet normal 0 0 -1
    outer loop
      vertex 5.4078 16.6435 -1
      vertex 6.99923 21.5414 -1
      vertex 8.75 15.1554 -1
    endloop
  endfacet
  facet normal 0 0 -1
    outer loop
      vertex 5.4078 16.6435 -1
      vertex 2.36757 22.5259 -1
      vertex 6.99923 21.5414 -1
    endloop
  endfacet
  facet normal 0 0 -1
    outer loop
      vertex 1.82925 17.4041 -1
      vertex 2.36757 22.5259 -1
      vertex 5.4078 16.6435 -1
    endloop
  endfacet
  facet normal 0 0 -1
    outer loop
      vertex -1.82925 17.4041 -1
      vertex 2.36757 22.5259 -1
      vertex 1.82925 17.4041 -1
    endloop
  endfacet
  facet normal 0 0 -1
    outer loop
      vertex -1.82925 17.4041 -1
      vertex -2.36757 22.5259 -1
      vertex 2.36757 22.5259 -1
    endloop
  endfacet
  facet normal 0 0 -1
    outer loop
      vertex -5.4078 16.6435 -1
      vertex -2.36757 22.5259 -1
      vertex -1.82925 17.4041 -1
    endloop
  endfacet
  facet normal 0 0 -1
    outer loop
      vertex -5.4078 16.6435 -1
      vertex -6.99923 21.5414 -1
      vertex -2.36757 22.5259 -1
    endloop
  endfacet
  facet normal 0 0 -1
    outer loop
      vertex -8.75 15.1554 -1
      vertex -6.99923 21.5414 -1
      vertex -5.4078 16.6435 -1
    endloop
  endfacet
  facet normal 0 0 -1
    outer loop
      vertex -8.75 15.1554 -1
      vertex -11.325 19.6155 -1
      vertex -6.99923 21.5414 -1
    endloop
  endfacet
  facet normal 0 0 -1
    outer loop
      vertex -11.7098 13.005 -1
      vertex -11.325 19.6155 -1
      vertex -8.75 15.1554 -1
    endloop
  endfacet
  facet normal 0 0 -1
    outer loop
      vertex -15.1558 16.8322 -1
      vertex -11.7098 13.005 -1
      vertex -14.1578 10.2862 -1
    endloop
  endfacet
  facet normal 0 0 -1
    outer loop
      vertex -11.7098 13.005 -1
      vertex -15.1558 16.8322 -1
      vertex -11.325 19.6155 -1
    endloop
  endfacet
  facet normal 0 0 -1
    outer loop
      vertex -18.3242 13.3133 -1
      vertex -14.1578 10.2862 -1
      vertex -15.987 7.11789 -1
    endloop
  endfacet
  facet normal 0 0 -1
    outer loop
      vertex -20.6918 9.21258 -1
      vertex -15.987 7.11789 -1
      vertex -17.1176 3.63845 -1
    endloop
  endfacet
  facet normal 0 0 -1
    outer loop
      vertex -14.1578 10.2862 -1
      vertex -18.3242 13.3133 -1
      vertex -15.1558 16.8322 -1
    endloop
  endfacet
  facet normal 0 0 -1
    outer loop
      vertex -22.155 4.7092 -1
      vertex -17.1176 3.63845 -1
      vertex -17.5 0 -1
    endloop
  endfacet
  facet normal 0 0 -1
    outer loop
      vertex -22.155 -4.7092 -1
      vertex -17.1176 -3.63845 -1
      vertex -20.6918 -9.21258 -1
    endloop
  endfacet
  facet normal -0 0 -1
    outer loop
      vertex -17.1176 -3.63845 -1
      vertex -22.155 -4.7092 -1
      vertex -17.5 0 -1
    endloop
  endfacet
  facet normal 0 0 -1
    outer loop
      vertex -15.987 7.11789 -1
      vertex -20.6918 9.21258 -1
      vertex -18.3242 13.3133 -1
    endloop
  endfacet
  facet normal 0 0 -1
    outer loop
      vertex -22.65 0 -1
      vertex -17.5 0 -1
      vertex -22.155 -4.7092 -1
    endloop
  endfacet
  facet normal 0 0 -1
    outer loop
      vertex -17.1176 3.63845 -1
      vertex -22.155 4.7092 -1
      vertex -20.6918 9.21258 -1
    endloop
  endfacet
  facet normal 0 0 -1
    outer loop
      vertex -17.5 0 -1
      vertex -22.65 0 -1
      vertex -22.155 4.7092 -1
    endloop
  endfacet
  facet normal 0.866021 0.500008 0
    outer loop
      vertex 20.6918 9.21258 1
      vertex 18.3242 13.3133 -1
      vertex 18.3242 13.3133 1
    endloop
  endfacet
  facet normal 0.866021 0.500008 0
    outer loop
      vertex 18.3242 13.3133 -1
      vertex 20.6918 9.21258 1
      vertex 20.6918 9.21258 -1
    endloop
  endfacet
  facet normal 0.951059 0.30901 0
    outer loop
      vertex 22.155 4.7092 1
      vertex 20.6918 9.21258 -1
      vertex 20.6918 9.21258 1
    endloop
  endfacet
  facet normal 0.951059 0.30901 0
    outer loop
      vertex 20.6918 9.21258 -1
      vertex 22.155 4.7092 1
      vertex 22.155 4.7092 -1
    endloop
  endfacet
  facet normal 0.743148 0.669127 0
    outer loop
      vertex 18.3242 13.3133 1
      vertex 15.1558 16.8322 -1
      vertex 15.1558 16.8322 1
    endloop
  endfacet
  facet normal 0.743148 0.669127 0
    outer loop
      vertex 15.1558 16.8322 -1
      vertex 18.3242 13.3133 1
      vertex 18.3242 13.3133 -1
    endloop
  endfacet
  facet normal 0.207914 0.978147 -0
    outer loop
      vertex 6.99923 21.5414 -1
      vertex 2.36757 22.5259 1
      vertex 6.99923 21.5414 1
    endloop
  endfacet
  facet normal 0.207914 0.978147 0
    outer loop
      vertex 2.36757 22.5259 1
      vertex 6.99923 21.5414 -1
      vertex 2.36757 22.5259 -1
    endloop
  endfacet
  facet normal 0.406727 0.91355 -0
    outer loop
      vertex 11.325 19.6155 -1
      vertex 6.99923 21.5414 1
      vertex 11.325 19.6155 1
    endloop
  endfacet
  facet normal 0.406727 0.91355 0
    outer loop
      vertex 6.99923 21.5414 1
      vertex 11.325 19.6155 -1
      vertex 6.99923 21.5414 -1
    endloop
  endfacet
  facet normal -0.866021 0.500008 0
    outer loop
      vertex -20.6918 9.21258 -1
      vertex -18.3242 13.3133 1
      vertex -18.3242 13.3133 -1
    endloop
  endfacet
  facet normal -0.866021 0.500008 0
    outer loop
      vertex -18.3242 13.3133 1
      vertex -20.6918 9.21258 -1
      vertex -20.6918 9.21258 1
    endloop
  endfacet
  facet normal -0.743148 0.669127 0
    outer loop
      vertex -18.3242 13.3133 -1
      vertex -15.1558 16.8322 1
      vertex -15.1558 16.8322 -1
    endloop
  endfacet
  facet normal -0.743148 0.669127 0
    outer loop
      vertex -15.1558 16.8322 1
      vertex -18.3242 13.3133 -1
      vertex -18.3242 13.3133 1
    endloop
  endfacet
  facet normal -0.951059 0.30901 0
    outer loop
      vertex -22.155 4.7092 -1
      vertex -20.6918 9.21258 1
      vertex -20.6918 9.21258 -1
    endloop
  endfacet
  facet normal -0.951059 0.30901 0
    outer loop
      vertex -20.6918 9.21258 1
      vertex -22.155 4.7092 -1
      vertex -22.155 4.7092 1
    endloop
  endfacet
  facet normal 0 0 1
    outer loop
      vertex 17.5 0 1
      vertex 22.65 0 1
      vertex 22.155 4.7092 1
    endloop
  endfacet
  facet normal 0 0 1
    outer loop
      vertex 17.1176 3.63845 1
      vertex 22.155 4.7092 1
      vertex 20.6918 9.21258 1
    endloop
  endfacet
  facet normal 0 0 1
    outer loop
      vertex 22.65 0 1
      vertex 17.5 0 1
      vertex 22.155 -4.7092 1
    endloop
  endfacet
  facet normal 0 0 1
    outer loop
      vertex 15.987 7.11789 1
      vertex 20.6918 9.21258 1
      vertex 18.3242 13.3133 1
    endloop
  endfacet
  facet normal -0 0 1
    outer loop
      vertex 17.1176 -3.63845 1
      vertex 22.155 -4.7092 1
      vertex 17.5 0 1
    endloop
  endfacet
  facet normal 0 0 1
    outer loop
      vertex 22.155 -4.7092 1
      vertex 17.1176 -3.63845 1
      vertex 20.6918 -9.21258 1
    endloop
  endfacet
  facet normal 0 0 1
    outer loop
      vertex 22.155 4.7092 1
      vertex 17.1176 3.63845 1
      vertex 17.5 0 1
    endloop
  endfacet
  facet normal 0 0 1
    outer loop
      vertex 20.6918 9.21258 1
      vertex 15.987 7.11789 1
      vertex 17.1176 3.63845 1
    endloop
  endfacet
  facet normal 0 0 1
    outer loop
      vertex 14.1578 10.2862 1
      vertex 18.3242 13.3133 1
      vertex 15.1558 16.8322 1
    endloop
  endfacet
  facet normal 0 0 1
    outer loop
      vertex 18.3242 13.3133 1
      vertex 14.1578 10.2862 1
      vertex 15.987 7.11789 1
    endloop
  endfacet
  facet normal 0 0 1
    outer loop
      vertex 15.1558 16.8322 1
      vertex 11.7098 13.005 1
      vertex 14.1578 10.2862 1
    endloop
  endfacet
  facet normal 0 0 1
    outer loop
      vertex 11.325 19.6155 1
      vertex 11.7098 13.005 1
      vertex 15.1558 16.8322 1
    endloop
  endfacet
  facet normal 0 0 1
    outer loop
      vertex 11.325 19.6155 1
      vertex 8.75 15.1554 1
      vertex 11.7098 13.005 1
    endloop
  endfacet
  facet normal 0 0 1
    outer loop
      vertex 6.99923 21.5414 1
      vertex 8.75 15.1554 1
      vertex 11.325 19.6155 1
    endloop
  endfacet
  facet normal 0 0 1
    outer loop
      vertex 6.99923 21.5414 1
      vertex 5.4078 16.6435 1
      vertex 8.75 15.1554 1
    endloop
  endfacet
  facet normal 0 0 1
    outer loop
      vertex 2.36757 22.5259 1
      vertex 5.4078 16.6435 1
      vertex 6.99923 21.5414 1
    endloop
  endfacet
  facet normal 0 0 1
    outer loop
      vertex 2.36757 22.5259 1
      vertex 1.82925 17.4041 1
      vertex 5.4078 16.6435 1
    endloop
  endfacet
  facet normal 0 0 1
    outer loop
      vertex 2.36757 22.5259 1
      vertex -1.82925 17.4041 1
      vertex 1.82925 17.4041 1
    endloop
  endfacet
  facet normal -0 0 1
    outer loop
      vertex -2.36757 22.5259 1
      vertex -1.82925 17.4041 1
      vertex 2.36757 22.5259 1
    endloop
  endfacet
  facet normal 0 0 1
    outer loop
      vertex -2.36757 22.5259 1
      vertex -5.4078 16.6435 1
      vertex -1.82925 17.4041 1
    endloop
  endfacet
  facet normal -0 0 1
    outer loop
      vertex -6.99923 21.5414 1
      vertex -5.4078 16.6435 1
      vertex -2.36757 22.5259 1
    endloop
  endfacet
  facet normal 0 0 1
    outer loop
      vertex -6.99923 21.5414 1
      vertex -8.75 15.1554 1
      vertex -5.4078 16.6435 1
    endloop
  endfacet
  facet normal -0 0 1
    outer loop
      vertex -11.325 19.6155 1
      vertex -8.75 15.1554 1
      vertex -6.99923 21.5414 1
    endloop
  endfacet
  facet normal 0 0 1
    outer loop
      vertex -11.325 19.6155 1
      vertex -11.7098 13.005 1
      vertex -8.75 15.1554 1
    endloop
  endfacet
  facet normal -0 0 1
    outer loop
      vertex -15.1558 16.8322 1
      vertex -11.7098 13.005 1
      vertex -11.325 19.6155 1
    endloop
  endfacet
  facet normal 0 0 1
    outer loop
      vertex -11.7098 13.005 1
      vertex -15.1558 16.8322 1
      vertex -14.1578 10.2862 1
    endloop
  endfacet
  facet normal -0 0 1
    outer loop
      vertex -18.3242 13.3133 1
      vertex -14.1578 10.2862 1
      vertex -15.1558 16.8322 1
    endloop
  endfacet
  facet normal 0 0 1
    outer loop
      vertex -14.1578 10.2862 1
      vertex -18.3242 13.3133 1
      vertex -15.987 7.11789 1
    endloop
  endfacet
  facet normal 0 0 1
    outer loop
      vertex -15.987 7.11789 1
      vertex -20.6918 9.21258 1
      vertex -17.1176 3.63845 1
    endloop
  endfacet
  facet normal -0 0 1
    outer loop
      vertex -20.6918 9.21258 1
      vertex -15.987 7.11789 1
      vertex -18.3242 13.3133 1
    endloop
  endfacet
  facet normal -0 0 1
    outer loop
      vertex 15.987 -7.11789 1
      vertex 20.6918 -9.21258 1
      vertex 17.1176 -3.63845 1
    endloop
  endfacet
  facet normal 0 0 1
    outer loop
      vertex 20.6918 -9.21258 1
      vertex 15.987 -7.11789 1
      vertex 18.3242 -13.3133 1
    endloop
  endfacet
  facet normal -0 0 1
    outer loop
      vertex 14.1578 -10.2862 1
      vertex 18.3242 -13.3133 1
      vertex 15.987 -7.11789 1
    endloop
  endfacet
  facet normal 0 0 1
    outer loop
      vertex 18.3242 -13.3133 1
      vertex 14.1578 -10.2862 1
      vertex 15.1558 -16.8322 1
    endloop
  endfacet
  facet normal -0 0 1
    outer loop
      vertex 11.7098 -13.005 1
      vertex 15.1558 -16.8322 1
      vertex 14.1578 -10.2862 1
    endloop
  endfacet
  facet normal 0 0 1
    outer loop
      vertex 11.7098 -13.005 1
      vertex 11.325 -19.6155 1
      vertex 15.1558 -16.8322 1
    endloop
  endfacet
  facet normal -0 0 1
    outer loop
      vertex 8.75 -15.1554 1
      vertex 11.325 -19.6155 1
      vertex 11.7098 -13.005 1
    endloop
  endfacet
  facet normal 0 0 1
    outer loop
      vertex 8.75 -15.1554 1
      vertex 6.99923 -21.5414 1
      vertex 11.325 -19.6155 1
    endloop
  endfacet
  facet normal -0 0 1
    outer loop
      vertex 5.4078 -16.6435 1
      vertex 6.99923 -21.5414 1
      vertex 8.75 -15.1554 1
    endloop
  endfacet
  facet normal 0 0 1
    outer loop
      vertex 5.4078 -16.6435 1
      vertex 2.36757 -22.5259 1
      vertex 6.99923 -21.5414 1
    endloop
  endfacet
  facet normal -0 0 1
    outer loop
      vertex 1.82925 -17.4041 1
      vertex 2.36757 -22.5259 1
      vertex 5.4078 -16.6435 1
    endloop
  endfacet
  facet normal -0 0 1
    outer loop
      vertex -1.82925 -17.4041 1
      vertex 2.36757 -22.5259 1
      vertex 1.82925 -17.4041 1
    endloop
  endfacet
  facet normal 0 0 1
    outer loop
      vertex -1.82925 -17.4041 1
      vertex -2.36757 -22.5259 1
      vertex 2.36757 -22.5259 1
    endloop
  endfacet
  facet normal 0 0 1
    outer loop
      vertex -5.4078 -16.6435 1
      vertex -2.36757 -22.5259 1
      vertex -1.82925 -17.4041 1
    endloop
  endfacet
  facet normal 0 0 1
    outer loop
      vertex -5.4078 -16.6435 1
      vertex -6.99923 -21.5414 1
      vertex -2.36757 -22.5259 1
    endloop
  endfacet
  facet normal 0 0 1
    outer loop
      vertex -8.75 -15.1554 1
      vertex -6.99923 -21.5414 1
      vertex -5.4078 -16.6435 1
    endloop
  endfacet
  facet normal 0 0 1
    outer loop
      vertex -8.75 -15.1554 1
      vertex -11.325 -19.6155 1
      vertex -6.99923 -21.5414 1
    endloop
  endfacet
  facet normal 0 0 1
    outer loop
      vertex -11.7098 -13.005 1
      vertex -11.325 -19.6155 1
      vertex -8.75 -15.1554 1
    endloop
  endfacet
  facet normal 0 0 1
    outer loop
      vertex -15.1558 -16.8322 1
      vertex -11.7098 -13.005 1
      vertex -14.1578 -10.2862 1
    endloop
  endfacet
  facet normal 0 0 1
    outer loop
      vertex -11.7098 -13.005 1
      vertex -15.1558 -16.8322 1
      vertex -11.325 -19.6155 1
    endloop
  endfacet
  facet normal 0 0 1
    outer loop
      vertex -18.3242 -13.3133 1
      vertex -14.1578 -10.2862 1
      vertex -15.987 -7.11789 1
    endloop
  endfacet
  facet normal 0 0 1
    outer loop
      vertex -20.6918 -9.21258 1
      vertex -15.987 -7.11789 1
      vertex -17.1176 -3.63845 1
    endloop
  endfacet
  facet normal 0 0 1
    outer loop
      vertex -14.1578 -10.2862 1
      vertex -18.3242 -13.3133 1
      vertex -15.1558 -16.8322 1
    endloop
  endfacet
  facet normal 0 0 1
    outer loop
      vertex -22.155 -4.7092 1
      vertex -17.1176 -3.63845 1
      vertex -17.5 0 1
    endloop
  endfacet
  facet normal -0 0 1
    outer loop
      vertex -22.155 4.7092 1
      vertex -17.1176 3.63845 1
      vertex -20.6918 9.21258 1
    endloop
  endfacet
  facet normal 0 0 1
    outer loop
      vertex -17.1176 3.63845 1
      vertex -22.155 4.7092 1
      vertex -17.5 0 1
    endloop
  endfacet
  facet normal 0 0 1
    outer loop
      vertex -15.987 -7.11789 1
      vertex -20.6918 -9.21258 1
      vertex -18.3242 -13.3133 1
    endloop
  endfacet
  facet normal 0 0 1
    outer loop
      vertex -22.65 0 1
      vertex -17.5 0 1
      vertex -22.155 4.7092 1
    endloop
  endfacet
  facet normal 0 0 1
    outer loop
      vertex -17.1176 -3.63845 1
      vertex -22.155 -4.7092 1
      vertex -20.6918 -9.21258 1
    endloop
  endfacet
  facet normal 0 0 1
    outer loop
      vertex -17.5 0 1
      vertex -22.65 0 1
      vertex -22.155 -4.7092 1
    endloop
  endfacet
  facet normal -0.207914 0.978147 0
    outer loop
      vertex -2.36757 22.5259 -1
      vertex -6.99923 21.5414 1
      vertex -2.36757 22.5259 1
    endloop
  endfacet
  facet normal -0.207914 0.978147 0
    outer loop
      vertex -6.99923 21.5414 1
      vertex -2.36757 22.5259 -1
      vertex -6.99923 21.5414 -1
    endloop
  endfacet
  facet normal 0.994521 -0.104537 0
    outer loop
      vertex 22.155 -4.7092 1
      vertex 22.65 0 -1
      vertex 22.65 0 1
    endloop
  endfacet
  facet normal 0.994521 -0.104537 0
    outer loop
      vertex 22.65 0 -1
      vertex 22.155 -4.7092 1
      vertex 22.155 -4.7092 -1
    endloop
  endfacet
  facet normal -0.207914 -0.978147 0
    outer loop
      vertex -6.99923 -21.5414 -1
      vertex -2.36757 -22.5259 1
      vertex -6.99923 -21.5414 1
    endloop
  endfacet
  facet normal -0.207914 -0.978147 -0
    outer loop
      vertex -2.36757 -22.5259 1
      vertex -6.99923 -21.5414 -1
      vertex -2.36757 -22.5259 -1
    endloop
  endfacet
  facet normal 0.743148 -0.669127 0
    outer loop
      vertex 15.1558 -16.8322 1
      vertex 18.3242 -13.3133 -1
      vertex 18.3242 -13.3133 1
    endloop
  endfacet
  facet normal 0.743148 -0.669127 0
    outer loop
      vertex 18.3242 -13.3133 -1
      vertex 15.1558 -16.8322 1
      vertex 15.1558 -16.8322 -1
    endloop
  endfacet
  facet normal 0.951059 -0.30901 0
    outer loop
      vertex 20.6918 -9.21258 1
      vertex 22.155 -4.7092 -1
      vertex 22.155 -4.7092 1
    endloop
  endfacet
  facet normal 0.951059 -0.30901 0
    outer loop
      vertex 22.155 -4.7092 -1
      vertex 20.6918 -9.21258 1
      vertex 20.6918 -9.21258 -1
    endloop
  endfacet
  facet normal 0.866021 -0.500008 0
    outer loop
      vertex 18.3242 -13.3133 1
      vertex 20.6918 -9.21258 -1
      vertex 20.6918 -9.21258 1
    endloop
  endfacet
  facet normal 0.866021 -0.500008 0
    outer loop
      vertex 20.6918 -9.21258 -1
      vertex 18.3242 -13.3133 1
      vertex 18.3242 -13.3133 -1
    endloop
  endfacet
  facet normal -0.866021 -0.500008 0
    outer loop
      vertex -18.3242 -13.3133 -1
      vertex -20.6918 -9.21258 1
      vertex -20.6918 -9.21258 -1
    endloop
  endfacet
  facet normal -0.866021 -0.500008 0
    outer loop
      vertex -20.6918 -9.21258 1
      vertex -18.3242 -13.3133 -1
      vertex -18.3242 -13.3133 1
    endloop
  endfacet
  facet normal -0.994521 -0.104537 0
    outer loop
      vertex -22.155 -4.7092 -1
      vertex -22.65 0 1
      vertex -22.65 0 -1
    endloop
  endfacet
  facet normal -0.994521 -0.104537 0
    outer loop
      vertex -22.65 0 1
      vertex -22.155 -4.7092 -1
      vertex -22.155 -4.7092 1
    endloop
  endfacet
  facet normal -0.951059 -0.30901 0
    outer loop
      vertex -20.6918 -9.21258 -1
      vertex -22.155 -4.7092 1
      vertex -22.155 -4.7092 -1
    endloop
  endfacet
  facet normal -0.951059 -0.30901 0
    outer loop
      vertex -22.155 -4.7092 1
      vertex -20.6918 -9.21258 -1
      vertex -20.6918 -9.21258 1
    endloop
  endfacet
  facet normal 0.207914 -0.978147 0
    outer loop
      vertex 2.36757 -22.5259 -1
      vertex 6.99923 -21.5414 1
      vertex 2.36757 -22.5259 1
    endloop
  endfacet
  facet normal 0.207914 -0.978147 0
    outer loop
      vertex 6.99923 -21.5414 1
      vertex 2.36757 -22.5259 -1
      vertex 6.99923 -21.5414 -1
    endloop
  endfacet
  facet normal 0.587794 -0.809011 0
    outer loop
      vertex 11.325 -19.6155 -1
      vertex 15.1558 -16.8322 1
      vertex 11.325 -19.6155 1
    endloop
  endfacet
  facet normal 0.587794 -0.809011 0
    outer loop
      vertex 15.1558 -16.8322 1
      vertex 11.325 -19.6155 -1
      vertex 15.1558 -16.8322 -1
    endloop
  endfacet
  facet normal 0 -1 0
    outer loop
      vertex -2.36757 -22.5259 -1
      vertex 2.36757 -22.5259 1
      vertex -2.36757 -22.5259 1
    endloop
  endfacet
  facet normal 0 -1 -0
    outer loop
      vertex 2.36757 -22.5259 1
      vertex -2.36757 -22.5259 -1
      vertex 2.36757 -22.5259 -1
    endloop
  endfacet
  facet normal -0.587794 -0.809011 0
    outer loop
      vertex -15.1558 -16.8322 -1
      vertex -11.325 -19.6155 1
      vertex -15.1558 -16.8322 1
    endloop
  endfacet
  facet normal -0.587794 -0.809011 -0
    outer loop
      vertex -11.325 -19.6155 1
      vertex -15.1558 -16.8322 -1
      vertex -11.325 -19.6155 -1
    endloop
  endfacet
  facet normal -0.406727 -0.91355 0
    outer loop
      vertex -11.325 -19.6155 -1
      vertex -6.99923 -21.5414 1
      vertex -11.325 -19.6155 1
    endloop
  endfacet
  facet normal -0.406727 -0.91355 -0
    outer loop
      vertex -6.99923 -21.5414 1
      vertex -11.325 -19.6155 -1
      vertex -6.99923 -21.5414 -1
    endloop
  endfacet
  facet normal -0.743148 -0.669127 0
    outer loop
      vertex -15.1558 -16.8322 -1
      vertex -18.3242 -13.3133 1
      vertex -18.3242 -13.3133 -1
    endloop
  endfacet
  facet normal -0.743148 -0.669127 0
    outer loop
      vertex -18.3242 -13.3133 1
      vertex -15.1558 -16.8322 -1
      vertex -15.1558 -16.8322 1
    endloop
  endfacet
  facet normal 0.406727 -0.91355 0
    outer loop
      vertex 6.99923 -21.5414 -1
      vertex 11.325 -19.6155 1
      vertex 6.99923 -21.5414 1
    endloop
  endfacet
  facet normal 0.406727 -0.91355 0
    outer loop
      vertex 11.325 -19.6155 1
      vertex 6.99923 -21.5414 -1
      vertex 11.325 -19.6155 -1
    endloop
  endfacet
  facet normal -0.866028 -0.499995 0
    outer loop
      vertex 15.987 7.11789 -1
      vertex 14.1578 10.2862 1
      vertex 14.1578 10.2862 -1
    endloop
  endfacet
  facet normal -0.866028 -0.499995 0
    outer loop
      vertex 14.1578 10.2862 1
      vertex 15.987 7.11789 -1
      vertex 15.987 7.11789 1
    endloop
  endfacet
  facet normal 0.951052 -0.309032 0
    outer loop
      vertex -17.1176 3.63845 1
      vertex -15.987 7.11789 -1
      vertex -15.987 7.11789 1
    endloop
  endfacet
  facet normal 0.951052 -0.309032 0
    outer loop
      vertex -15.987 7.11789 -1
      vertex -17.1176 3.63845 1
      vertex -17.1176 3.63845 -1
    endloop
  endfacet
  facet normal -0.743147 -0.669128 0
    outer loop
      vertex 14.1578 10.2862 -1
      vertex 11.7098 13.005 1
      vertex 11.7098 13.005 -1
    endloop
  endfacet
  facet normal -0.743147 -0.669128 0
    outer loop
      vertex 11.7098 13.005 1
      vertex 14.1578 10.2862 -1
      vertex 14.1578 10.2862 1
    endloop
  endfacet
  facet normal -0.2079 -0.97815 0
    outer loop
      vertex 1.82925 17.4041 -1
      vertex 5.4078 16.6435 1
      vertex 1.82925 17.4041 1
    endloop
  endfacet
  facet normal -0.2079 -0.97815 -0
    outer loop
      vertex 5.4078 16.6435 1
      vertex 1.82925 17.4041 -1
      vertex 5.4078 16.6435 -1
    endloop
  endfacet
  facet normal 0.40675 -0.91354 0
    outer loop
      vertex -8.75 15.1554 -1
      vertex -5.4078 16.6435 1
      vertex -8.75 15.1554 1
    endloop
  endfacet
  facet normal 0.40675 -0.91354 0
    outer loop
      vertex -5.4078 16.6435 1
      vertex -8.75 15.1554 -1
      vertex -5.4078 16.6435 -1
    endloop
  endfacet
  facet normal 0.866028 -0.499995 0
    outer loop
      vertex -15.987 7.11789 1
      vertex -14.1578 10.2862 -1
      vertex -14.1578 10.2862 1
    endloop
  endfacet
  facet normal 0.866028 -0.499995 0
    outer loop
      vertex -14.1578 10.2862 -1
      vertex -15.987 7.11789 1
      vertex -15.987 7.11789 -1
    endloop
  endfacet
  facet normal 0.587782 -0.80902 0
    outer loop
      vertex -11.7098 13.005 -1
      vertex -8.75 15.1554 1
      vertex -11.7098 13.005 1
    endloop
  endfacet
  facet normal 0.587782 -0.80902 0
    outer loop
      vertex -8.75 15.1554 1
      vertex -11.7098 13.005 -1
      vertex -8.75 15.1554 -1
    endloop
  endfacet
  facet normal -0.994522 0.104524 0
    outer loop
      vertex 17.1176 -3.63845 -1
      vertex 17.5 0 1
      vertex 17.5 0 -1
    endloop
  endfacet
  facet normal -0.994522 0.104524 0
    outer loop
      vertex 17.5 0 1
      vertex 17.1176 -3.63845 -1
      vertex 17.1176 -3.63845 1
    endloop
  endfacet
  facet normal -0.587782 -0.80902 0
    outer loop
      vertex 8.75 15.1554 -1
      vertex 11.7098 13.005 1
      vertex 8.75 15.1554 1
    endloop
  endfacet
  facet normal -0.587782 -0.80902 -0
    outer loop
      vertex 11.7098 13.005 1
      vertex 8.75 15.1554 -1
      vertex 11.7098 13.005 -1
    endloop
  endfacet
  facet normal 0 -1 0
    outer loop
      vertex -1.82925 17.4041 -1
      vertex 1.82925 17.4041 1
      vertex -1.82925 17.4041 1
    endloop
  endfacet
  facet normal 0 -1 -0
    outer loop
      vertex 1.82925 17.4041 1
      vertex -1.82925 17.4041 -1
      vertex 1.82925 17.4041 -1
    endloop
  endfacet
  facet normal -0.40675 -0.91354 0
    outer loop
      vertex 5.4078 16.6435 -1
      vertex 8.75 15.1554 1
      vertex 5.4078 16.6435 1
    endloop
  endfacet
  facet normal -0.40675 -0.91354 -0
    outer loop
      vertex 8.75 15.1554 1
      vertex 5.4078 16.6435 -1
      vertex 8.75 15.1554 -1
    endloop
  endfacet
  facet normal 0.994522 -0.104524 0
    outer loop
      vertex -17.5 0 1
      vertex -17.1176 3.63845 -1
      vertex -17.1176 3.63845 1
    endloop
  endfacet
  facet normal 0.994522 -0.104524 0
    outer loop
      vertex -17.1176 3.63845 -1
      vertex -17.5 0 1
      vertex -17.5 0 -1
    endloop
  endfacet
  facet normal 0.743147 -0.669128 0
    outer loop
      vertex -14.1578 10.2862 1
      vertex -11.7098 13.005 -1
      vertex -11.7098 13.005 1
    endloop
  endfacet
  facet normal 0.743147 -0.669128 0
    outer loop
      vertex -11.7098 13.005 -1
      vertex -14.1578 10.2862 1
      vertex -14.1578 10.2862 -1
    endloop
  endfacet
  facet normal 0.2079 -0.97815 0
    outer loop
      vertex -5.4078 16.6435 -1
      vertex -1.82925 17.4041 1
      vertex -5.4078 16.6435 1
    endloop
  endfacet
  facet normal 0.2079 -0.97815 0
    outer loop
      vertex -1.82925 17.4041 1
      vertex -5.4078 16.6435 -1
      vertex -1.82925 17.4041 -1
    endloop
  endfacet
  facet normal -0.994522 -0.104524 0
    outer loop
      vertex 17.5 0 -1
      vertex 17.1176 3.63845 1
      vertex 17.1176 3.63845 -1
    endloop
  endfacet
  facet normal -0.994522 -0.104524 0
    outer loop
      vertex 17.1176 3.63845 1
      vertex 17.5 0 -1
      vertex 17.5 0 1
    endloop
  endfacet
  facet normal -0.951052 0.309032 0
    outer loop
      vertex 15.987 -7.11789 -1
      vertex 17.1176 -3.63845 1
      vertex 17.1176 -3.63845 -1
    endloop
  endfacet
  facet normal -0.951052 0.309032 0
    outer loop
      vertex 17.1176 -3.63845 1
      vertex 15.987 -7.11789 -1
      vertex 15.987 -7.11789 1
    endloop
  endfacet
  facet normal 0.587782 0.80902 -0
    outer loop
      vertex -8.75 -15.1554 -1
      vertex -11.7098 -13.005 1
      vertex -8.75 -15.1554 1
    endloop
  endfacet
  facet normal 0.587782 0.80902 0
    outer loop
      vertex -11.7098 -13.005 1
      vertex -8.75 -15.1554 -1
      vertex -11.7098 -13.005 -1
    endloop
  endfacet
  facet normal 0.866028 0.499995 0
    outer loop
      vertex -14.1578 -10.2862 1
      vertex -15.987 -7.11789 -1
      vertex -15.987 -7.11789 1
    endloop
  endfacet
  facet normal 0.866028 0.499995 0
    outer loop
      vertex -15.987 -7.11789 -1
      vertex -14.1578 -10.2862 1
      vertex -14.1578 -10.2862 -1
    endloop
  endfacet
  facet normal -0.587782 0.80902 0
    outer loop
      vertex 11.7098 -13.005 -1
      vertex 8.75 -15.1554 1
      vertex 11.7098 -13.005 1
    endloop
  endfacet
  facet normal -0.587782 0.80902 0
    outer loop
      vertex 8.75 -15.1554 1
      vertex 11.7098 -13.005 -1
      vertex 8.75 -15.1554 -1
    endloop
  endfacet
  facet normal -0.951052 -0.309032 0
    outer loop
      vertex 17.1176 3.63845 -1
      vertex 15.987 7.11789 1
      vertex 15.987 7.11789 -1
    endloop
  endfacet
  facet normal -0.951052 -0.309032 0
    outer loop
      vertex 15.987 7.11789 1
      vertex 17.1176 3.63845 -1
      vertex 17.1176 3.63845 1
    endloop
  endfacet
  facet normal -0.866028 0.499995 0
    outer loop
      vertex 14.1578 -10.2862 -1
      vertex 15.987 -7.11789 1
      vertex 15.987 -7.11789 -1
    endloop
  endfacet
  facet normal -0.866028 0.499995 0
    outer loop
      vertex 15.987 -7.11789 1
      vertex 14.1578 -10.2862 -1
      vertex 14.1578 -10.2862 1
    endloop
  endfacet
  facet normal 0.994522 0.104524 0
    outer loop
      vertex -17.1176 -3.63845 1
      vertex -17.5 0 -1
      vertex -17.5 0 1
    endloop
  endfacet
  facet normal 0.994522 0.104524 0
    outer loop
      vertex -17.5 0 -1
      vertex -17.1176 -3.63845 1
      vertex -17.1176 -3.63845 -1
    endloop
  endfacet
  facet normal 0.743147 0.669128 0
    outer loop
      vertex -11.7098 -13.005 1
      vertex -14.1578 -10.2862 -1
      vertex -14.1578 -10.2862 1
    endloop
  endfacet
  facet normal 0.743147 0.669128 0
    outer loop
      vertex -14.1578 -10.2862 -1
      vertex -11.7098 -13.005 1
      vertex -11.7098 -13.005 -1
    endloop
  endfacet
  facet normal -0.2079 0.97815 0
    outer loop
      vertex 5.4078 -16.6435 -1
      vertex 1.82925 -17.4041 1
      vertex 5.4078 -16.6435 1
    endloop
  endfacet
  facet normal -0.2079 0.97815 0
    outer loop
      vertex 1.82925 -17.4041 1
      vertex 5.4078 -16.6435 -1
      vertex 1.82925 -17.4041 -1
    endloop
  endfacet
  facet normal -0.40675 0.91354 0
    outer loop
      vertex 8.75 -15.1554 -1
      vertex 5.4078 -16.6435 1
      vertex 8.75 -15.1554 1
    endloop
  endfacet
  facet normal -0.40675 0.91354 0
    outer loop
      vertex 5.4078 -16.6435 1
      vertex 8.75 -15.1554 -1
      vertex 5.4078 -16.6435 -1
    endloop
  endfacet
  facet normal 0.40675 0.91354 -0
    outer loop
      vertex -5.4078 -16.6435 -1
      vertex -8.75 -15.1554 1
      vertex -5.4078 -16.6435 1
    endloop
  endfacet
  facet normal 0.40675 0.91354 0
    outer loop
      vertex -8.75 -15.1554 1
      vertex -5.4078 -16.6435 -1
      vertex -8.75 -15.1554 -1
    endloop
  endfacet
  facet normal 0 1 -0
    outer loop
      vertex 1.82925 -17.4041 -1
      vertex -1.82925 -17.4041 1
      vertex 1.82925 -17.4041 1
    endloop
  endfacet
  facet normal 0 1 0
    outer loop
      vertex -1.82925 -17.4041 1
      vertex 1.82925 -17.4041 -1
      vertex -1.82925 -17.4041 -1
    endloop
  endfacet
  facet normal 0.951052 0.309032 0
    outer loop
      vertex -15.987 -7.11789 1
      vertex -17.1176 -3.63845 -1
      vertex -17.1176 -3.63845 1
    endloop
  endfacet
  facet normal 0.951052 0.309032 0
    outer loop
      vertex -17.1176 -3.63845 -1
      vertex -15.987 -7.11789 1
      vertex -15.987 -7.11789 -1
    endloop
  endfacet
  facet normal -0.743147 0.669128 0
    outer loop
      vertex 11.7098 -13.005 -1
      vertex 14.1578 -10.2862 1
      vertex 14.1578 -10.2862 -1
    endloop
  endfacet
  facet normal -0.743147 0.669128 0
    outer loop
      vertex 14.1578 -10.2862 1
      vertex 11.7098 -13.005 -1
      vertex 11.7098 -13.005 1
    endloop
  endfacet
  facet normal 0.2079 0.97815 -0
    outer loop
      vertex -1.82925 -17.4041 -1
      vertex -5.4078 -16.6435 1
      vertex -1.82925 -17.4041 1
    endloop
  endfacet
  facet normal 0.2079 0.97815 0
    outer loop
      vertex -5.4078 -16.6435 1
      vertex -1.82925 -17.4041 -1
      vertex -5.4078 -16.6435 -1
    endloop
  endfacet
endsolid OpenSCAD_Model
