<?xml version="1.0" standalone="no"?>
<!DOCTYPE svg PUBLIC "-//W3C//DTD SVG 1.1//EN" "http://www.w3.org/Graphics/SVG/1.1/DTD/svg11.dtd">
<svg width="46mm" height="46mm" viewBox="-23 -23 46 46" xmlns="http://www.w3.org/2000/svg" version="1.1">
<title>OpenSCAD Model</title>
<path d="
M 6.99922,21.5414 L 11.325,19.6155 L 15.1558,16.8322 L 18.3242,13.3133 L 20.6918,9.21257 L 22.155,4.7092
 L 22.65,-0 L 22.155,-4.7092 L 20.6918,-9.21257 L 18.3242,-13.3133 L 15.1558,-16.8322 L 11.325,-19.6155
 L 6.99922,-21.5414 L 2.36757,-22.5259 L -2.36757,-22.5259 L -6.99922,-21.5414 L -11.325,-19.6155 L -15.1558,-16.8322
 L -18.3242,-13.3133 L -20.6918,-9.21257 L -22.155,-4.7092 L -22.65,-0 L -22.155,4.7092 L -20.6918,9.21257
 L -18.3242,13.3133 L -15.1558,16.8322 L -11.325,19.6155 L -6.99922,21.5414 L -2.36757,22.5259 L 2.36757,22.5259
 z
M -1.82924,17.4041 L -5.40779,16.6435 L -8.75,15.1554 L -11.7098,13.005 L -14.1578,10.2862 L -15.987,7.11789
 L -17.1176,3.63844 L -17.5,-0 L -17.1176,-3.63844 L -15.987,-7.11789 L -14.1578,-10.2862 L -11.7098,-13.005
 L -8.75,-15.1554 L -5.40779,-16.6435 L -1.82924,-17.4041 L 1.82924,-17.4041 L 5.40779,-16.6435 L 8.75,-15.1554
 L 11.7098,-13.005 L 14.1578,-10.2862 L 15.987,-7.11789 L 17.1176,-3.63844 L 17.5,-0 L 17.1176,3.63844
 L 15.987,7.11789 L 14.1578,10.2862 L 11.7098,13.005 L 8.75,15.1554 L 5.40779,16.6435 L 1.82924,17.4041
 z
" stroke="black" fill="lightgray" stroke-width="0.5"/>
</svg>
